<?xml version="1.0" encoding="UTF-8"?>
<svg version="1.1" xmlns="http://www.w3.org/2000/svg" width="369" height="264">
<path d="M0 0 C6.24797106 9.37195659 6.00861346 19.31305455 3.9375 30 C-0.644318 49.49887844 -10.52170784 67.70160932 -22.7578125 83.44921875 C-24.84496599 85.96634812 -24.84496599 85.96634812 -25.875 88.1875 C-25.12476562 88.00832031 -24.37453125 87.82914062 -23.6015625 87.64453125 C-16.38313757 86.14448073 -10.53192466 85.61578106 -3.875 89.1875 C4.32050794 95.9275689 5.67901739 105.14663668 6.8125 115.125 C6.94205078 116.19041016 7.07160156 117.25582031 7.20507812 118.35351562 C7.52113007 120.9638706 7.82749198 123.57497777 8.125 126.1875 C11.92824077 122.98141441 15.72674499 119.76989169 19.51855469 116.55029297 C20.80450173 115.45938774 22.09320343 114.37172998 23.3828125 113.28515625 C24.63453203 112.21412427 25.86775446 111.12111531 27.08203125 110.0078125 C29.125 108.1875 29.125 108.1875 31.94921875 106.0546875 C40.70129213 98.7555727 41.735843 92.18800095 42.73046875 81.21484375 C42.7979834 80.34327637 42.86549805 79.47170898 42.93505859 78.57373047 C43.72107884 68.69897221 45.50643911 54.38963356 52.2890625 46.75 C52.89492187 46.234375 53.50078125 45.71875 54.125 45.1875 C55.445 45.8475 56.765 46.5075 58.125 47.1875 C57.50060372 53.97260619 56.27820097 60.42825679 54.75 67.0625 C52.44153789 77.38562276 50.54259975 87.70521101 49.125 98.1875 C48.99222656 99.16203125 48.85945312 100.1365625 48.72265625 101.140625 C48.05984851 107.06049687 48.02889179 112.98692405 48 118.9375 C47.99524658 119.74251953 47.99049316 120.54753906 47.9855957 121.37695312 C47.99875693 126.08379868 48.34299836 130.54514107 49.125 135.1875 C53.43900953 131.33309553 55.74309643 127.54463851 58.15625 122.32421875 C58.51464966 121.5734053 58.87304932 120.82259186 59.24230957 120.04902649 C60.37994343 117.66230893 61.50332073 115.26925169 62.625 112.875 C63.74865938 110.49248418 64.87545141 108.11155949 66.00769043 105.73310852 C66.70885313 104.25862373 67.40495007 102.78171433 68.09484863 101.30192566 C71.15888397 94.83029921 74.6378467 88.54525252 79.4375 83.1875 C79.94925781 82.61 80.46101562 82.0325 80.98828125 81.4375 C81.55095703 80.81875 81.55095703 80.81875 82.125 80.1875 C83.775 80.5175 85.425 80.8475 87.125 81.1875 C87.455 82.1775 87.785 83.1675 88.125 84.1875 C87.733125 84.765 87.34125 85.3425 86.9375 85.9375 C86.669375 86.68 86.40125 87.4225 86.125 88.1875 C87.08243857 89.90428641 88.04960101 91.61724162 89.08984375 93.28515625 C92.69857994 99.91706012 91.03156181 108.25877536 89.125 115.1875 C87.15690172 119.38566186 84.6646861 123.15598665 81.125 126.1875 C76.1477704 127.57459677 76.1477704 127.57459677 73.125 127.1875 C70.55480731 125.60750786 68.66613264 123.78524252 67.125 121.1875 C67.125 119.8675 67.125 118.5475 67.125 117.1875 C66.61710938 118.33347656 66.10921875 119.47945313 65.5859375 120.66015625 C64.89123428 122.19038092 64.1958872 123.7203134 63.5 125.25 C63.16871094 126.00216797 62.83742187 126.75433594 62.49609375 127.52929688 C60.16604919 132.6070355 57.51480447 137.58975682 53.125 141.1875 C49.25 141.625 49.25 141.625 46.125 141.1875 C42.00815625 134.1490252 40.73194261 128.35821736 39.96289062 120.25976562 C39.63303898 115.75859401 39.63303898 115.75859401 37.125 112.1875 C38.115 111.8575 39.105 111.5275 40.125 111.1875 C39.795 110.5275 39.465 109.8675 39.125 109.1875 C38.12533203 110.22197266 38.12533203 110.22197266 37.10546875 111.27734375 C21.88214192 126.79874971 21.88214192 126.79874971 14.38671875 130.5625 C10.63455946 132.51918158 7.90170274 134.20130724 6.30566406 138.28271484 C5.0305005 142.71572106 4.14877708 147.2145589 3.26171875 151.73828125 C0.24920062 167.04722893 -7.03075255 183.83835844 -17.875 195.1875 C-21.875 195.1875 -21.875 195.1875 -24.875 193.1875 C-23.59669339 189.58930363 -21.89846775 186.498002 -19.85400391 183.27880859 C-16.03572347 177.25171126 -12.74391855 171.15151989 -10 164.5625 C-9.72647705 163.91958008 -9.4529541 163.27666016 -9.17114258 162.61425781 C-6.65240312 156.33339992 -5.29000458 149.78959019 -3.875 143.1875 C-4.52871582 143.56970703 -5.18243164 143.95191406 -5.85595703 144.34570312 C-7.80308129 145.48377962 -9.75044927 146.62143919 -11.69799805 147.75878906 C-13.91098761 149.05140404 -16.12338425 150.34503462 -18.33520508 151.63964844 C-27.77178947 157.15421972 -27.77178947 157.15421972 -32.12890625 159.546875 C-38.82096433 163.23169424 -44.87019878 167.23479768 -50.79174805 172.04003906 C-54.68769055 175.1875 -54.68769055 175.1875 -56.875 175.1875 C-56.875 175.8475 -56.875 176.5075 -56.875 177.1875 C-57.535 177.1875 -58.195 177.1875 -58.875 177.1875 C-59.14570312 177.78175781 -59.41640625 178.37601563 -59.6953125 178.98828125 C-60.85699852 181.15394094 -62.06337874 182.60535852 -63.75 184.375 C-68.8536265 190.2416687 -71.54403607 196.33121234 -71.1328125 204.171875 C-70.79074137 206.84624927 -70.31151563 208.889075 -68.875 211.1875 C-65.94837731 212.20154909 -63.2045323 212.32230743 -60.125 212.3125 C-59.25101563 212.31121094 -58.37703125 212.30992187 -57.4765625 212.30859375 C-55.0641058 212.19630222 -52.86423883 211.83987842 -50.5 211.375 C-49.30375 211.313125 -48.1075 211.25125 -46.875 211.1875 C-44.375 213.625 -44.375 213.625 -42.875 216.1875 C-51.20034418 219.86986377 -59.08133588 221.95984087 -68.125 219.125 C-72.48417265 217.27699375 -75.30619988 214.09847596 -77.875 210.1875 C-80.47313739 202.39308783 -79.41017559 195.40083294 -75.9375 188.0625 C-66.34538454 170.10590397 -48.13105267 158.96125341 -30.875 149.1875 C-29.08804188 148.16232901 -27.30161788 147.13622664 -25.515625 146.109375 C-21.88948141 144.02794353 -18.25973855 141.95310423 -14.625 139.88671875 C-13.81675781 139.42571777 -13.00851563 138.9647168 -12.17578125 138.48974609 C-10.69975764 137.65431422 -9.21837528 136.82824016 -7.73046875 136.01416016 C-4.195893 134.23613134 -4.195893 134.23613134 -1.875 131.1875 C-1.79050372 129.4470583 -1.76776976 127.70340278 -1.77734375 125.9609375 C-1.78056641 124.9296875 -1.78378906 123.8984375 -1.78710938 122.8359375 C-1.79548828 121.75570312 -1.80386719 120.67546875 -1.8125 119.5625 C-1.81701172 118.47453125 -1.82152344 117.3865625 -1.82617188 116.265625 C-1.83798224 113.57286211 -1.85445222 110.88020812 -1.875 108.1875 C-2.535 107.8575 -3.195 107.5275 -3.875 107.1875 C-3.978125 106.465625 -4.08125 105.74375 -4.1875 105 C-5.16476636 101.00209215 -6.91835384 99.01559632 -9.875 96.1875 C-16.33698152 93.86118665 -21.95036573 96.39992629 -27.875 99.1875 C-32.12405695 101.64644499 -35.95190686 104.36930381 -39.625 107.625 C-41.875 109.1875 -41.875 109.1875 -44.6875 108.9375 C-45.409375 108.69 -46.13125 108.4425 -46.875 108.1875 C-47.5390625 106.4765625 -47.5390625 106.4765625 -47.875 104.1875 C-46.8984375 102.0234375 -46.8984375 102.0234375 -45.25 99.5625 C-44.60417969 98.59570312 -43.95835938 97.62890625 -43.29296875 96.6328125 C-40.43820951 92.52810528 -37.49843845 88.48431095 -34.5625 84.4375 C-20.33271516 64.81829371 -3.86393181 41.99589372 -3.6875 16.625 C-3.67332031 15.69558594 -3.65914063 14.76617187 -3.64453125 13.80859375 C-3.88158443 11.11261611 -4.50229864 9.49342125 -5.875 7.1875 C-14.28903393 8.00333252 -18.89971865 13.7329787 -24.203125 19.890625 C-30.37807544 27.7928343 -35.2398129 36.31974126 -39.875 45.1875 C-40.22498047 45.84411621 -40.57496094 46.50073242 -40.93554688 47.17724609 C-58.78423769 81.05485896 -69.52662296 120.30171812 -75.43164062 157.99023438 C-75.59857422 159.05048828 -75.76550781 160.11074219 -75.9375 161.203125 C-76.07285156 162.12383789 -76.20820312 163.04455078 -76.34765625 163.99316406 C-76.875 166.1875 -76.875 166.1875 -78.875 168.1875 C-82.41071429 167.65178571 -82.41071429 167.65178571 -83.875 166.1875 C-84.46985538 157.39074462 -83.42496013 148.66585825 -82.37890625 139.9453125 C-82.22367738 138.60602582 -82.06914633 137.26665809 -81.91526794 135.92721558 C-81.5120835 132.43035701 -81.1013525 128.93443227 -80.68835449 125.4387207 C-80.0295379 119.85464894 -79.38084611 114.26940576 -78.73515129 108.68380356 C-78.51163355 106.76176008 -78.28367469 104.84023468 -78.05555725 102.91873169 C-77.19763849 95.55963492 -76.58313105 88.23951993 -76.23179626 80.83761597 C-76.1140535 79.9630777 -75.99631073 79.08853943 -75.875 78.1875 C-74.885 77.6925 -74.885 77.6925 -73.875 77.1875 C-73.83761719 76.27355469 -73.80023438 75.35960938 -73.76171875 74.41796875 C-73.31953842 65.07825744 -72.41235485 55.8476648 -71.3125 46.5625 C-68.42486891 30.36450133 -68.42486891 30.36450133 -71.875 15.1875 C-72.37 13.7025 -72.37 13.7025 -72.875 12.1875 C-87.6472687 29.14319871 -96.40671245 55.87625638 -96.0234375 78.14453125 C-95.82263495 80.90820843 -95.33648334 82.82128887 -93.875 85.1875 C-93.00875 85.703125 -92.1425 86.21875 -91.25 86.75 C-90.46625 87.224375 -89.6825 87.69875 -88.875 88.1875 C-88.875 89.5075 -88.875 90.8275 -88.875 92.1875 C-92.93448212 93.34735203 -95.14634963 93.19523481 -98.875 91.1875 C-101.25 89.3125 -101.25 89.3125 -102.875 87.1875 C-102.625 84.9375 -102.625 84.9375 -101.875 83.1875 C-102.535 83.1875 -103.195 83.1875 -103.875 83.1875 C-104.205 82.1975 -104.535 81.2075 -104.875 80.1875 C-104.215 80.1875 -103.555 80.1875 -102.875 80.1875 C-103.205 76.2275 -103.535 72.2675 -103.875 68.1875 C-103.215 68.1875 -102.555 68.1875 -101.875 68.1875 C-101.99875 66.929375 -102.1225 65.67125 -102.25 64.375 C-102.19690471 45.52617226 -90.58172742 20.284043 -78.25 6.3515625 C-75.84317509 4.0826286 -74.00556879 3.21100238 -70.75 2.625 C-67.03848961 3.35116508 -66.0634041 4.09354938 -63.875 7.1875 C-60.85502589 13.89455771 -60.40116793 20.22712262 -60.5 27.5 C-60.50725098 28.57233887 -60.51450195 29.64467773 -60.52197266 30.74951172 C-60.80320556 47.71396933 -63.08418958 64.63067122 -65.54296875 81.40234375 C-65.85619654 84.02977218 -65.93827004 86.5447592 -65.875 89.1875 C-65.36911853 87.27237728 -64.87051609 85.35533078 -64.375 83.4375 C-64.0965625 82.37015625 -63.818125 81.3028125 -63.53125 80.203125 C-62.73324011 77.05044698 -62.73324011 77.05044698 -62.875 73.1875 C-61.885 73.6825 -61.885 73.6825 -60.875 74.1875 C-60.64949463 73.65084717 -60.42398926 73.11419434 -60.19165039 72.5612793 C-44.37888553 35.03534525 -44.37888553 35.03534525 -34.875 22.1875 C-33.99714844 20.99447266 -33.99714844 20.99447266 -33.1015625 19.77734375 C-31.40467609 17.5391429 -29.65949707 15.35635028 -27.875 13.1875 C-27.23691406 12.40246094 -26.59882812 11.61742187 -25.94140625 10.80859375 C-20.63003175 4.52398494 -15.50487725 -0.42274587 -7.1875 -1.9375 C-3.79746493 -2.11837967 -3.00218972 -1.89268482 0 0 Z M-67.875 94.1875 C-66.875 96.1875 -66.875 96.1875 -66.875 96.1875 Z M81.125 95.1875 C76.80872516 106.37732593 76.80872516 106.37732593 76.125 118.1875 C79.47176814 117.14884782 80.15032602 116.14137047 81.875 113 C83.27695232 109.33806989 83.50964008 106.11082882 83.125 102.1875 C82.465 101.5275 81.805 100.8675 81.125 100.1875 C81.785 100.1875 82.445 100.1875 83.125 100.1875 C83.125 98.5375 83.125 96.8875 83.125 95.1875 C82.465 95.1875 81.805 95.1875 81.125 95.1875 Z " fill="#0D2019" transform="translate(111.875,17.8125)"/>
<path d="M0 0 C1 1 1 1 1.4375 4.0625 C0.84754761 9.37207152 -1.19916902 12.3189431 -5 16 C-8.08631788 18.04039905 -11.2290182 20 -15 20 C-13.90213575 25.40787385 -13.90213575 25.40787385 -10 29 C0.02866979 28.83889687 7.82796493 21.32263175 15.0546875 15.22265625 C15.69664062 14.81917969 16.33859375 14.41570312 17 14 C17.99 14.33 18.98 14.66 20 15 C19.42581682 20.92974629 16.01886297 23.14422376 11.69921875 26.84765625 C4.52291529 32.57000532 -2.46108027 37.00409681 -12 36 C-17.00891409 34.05325818 -19.75212823 31.26681193 -23 27 C-24.10408203 27.72316406 -24.10408203 27.72316406 -25.23046875 28.4609375 C-26.20628906 29.09257813 -27.18210937 29.72421875 -28.1875 30.375 C-29.15042969 31.00148437 -30.11335938 31.62796875 -31.10546875 32.2734375 C-36.28699942 35.36417509 -40.90761061 36.9776437 -47 36 C-50.93622829 33.95899274 -53.48209259 32.25014075 -55 28 C-59.41085576 32.28833199 -63.38136055 36.38862975 -66 42 C-68 45 -68 45 -71 45.8125 C-76.53766191 46.38135835 -82.5177754 45.50029195 -87.30078125 42.609375 C-87.86152344 42.07828125 -88.42226563 41.5471875 -89 41 C-89 40.01 -89 39.02 -89 38 C-89.99 37.505 -89.99 37.505 -91 37 C-91.8515625 34.71484375 -91.8515625 34.71484375 -92.625 31.9375 C-92.88539063 31.01839844 -93.14578125 30.09929687 -93.4140625 29.15234375 C-93.60742188 28.44207031 -93.80078125 27.73179688 -94 27 C-102.68180235 31.39949547 -102.68180235 31.39949547 -108 39 C-108.07542084 40.79753004 -108.14633825 42.59542491 -108.18847656 44.39404297 C-108.72183941 63.73479573 -111.54813718 87.09947503 -125 102 C-125.46148437 102.515625 -125.92296875 103.03125 -126.3984375 103.5625 C-129.88967253 106.95729207 -133.18554532 107.86417402 -137.88671875 108.1328125 C-141.0123435 107.93637767 -142.66382008 107.06133523 -145 105 C-147.50166858 101.57178751 -148.77701408 98.04526112 -150 94 C-149.67 94 -149.34 94 -149 94 C-148.9484375 93.33097656 -148.896875 92.66195312 -148.84375 91.97265625 C-146.66303342 73.5109079 -135.31452385 57.27211334 -123.03613281 43.89379883 C-118.71607108 39.0826929 -116.67471642 34.7343582 -116.875 28.125 C-116.89304688 27.34382813 -116.91109375 26.56265625 -116.9296875 25.7578125 C-116.95289063 25.17773438 -116.97609375 24.59765625 -117 24 C-117.75925781 24.84304687 -118.51851562 25.68609375 -119.30078125 26.5546875 C-120.30451796 27.66161209 -121.30843358 28.76837447 -122.3125 29.875 C-123.06176758 30.70837891 -123.06176758 30.70837891 -123.82617188 31.55859375 C-129.57154265 37.87469672 -129.57154265 37.87469672 -134.5625 38.3125 C-135.696875 38.209375 -136.83125 38.10625 -138 38 C-140.53897254 34.19154119 -140.67652268 31.39739744 -140 27 C-136.81940146 16.54946194 -131.18497086 7.39399922 -122.11328125 1.10546875 C-118.48306168 -0.79351857 -115.07716683 -1.58797852 -111 -1 C-107.875 1.0625 -107.875 1.0625 -106 4 C-106.1875 7.3125 -106.1875 7.3125 -107 10 C-107.99 10 -108.98 10 -110 10 C-110.66 8.35 -111.32 6.7 -112 5 C-118.46542307 6.18752669 -122.08879514 8.70483035 -126 14 C-131.00733683 22.05316485 -131.00733683 22.05316485 -133 31 C-126.65533492 24.84194272 -121.22086415 18.12777552 -116 11 C-113.625 11.1875 -113.625 11.1875 -111 12 C-109.16676078 15.56463182 -108.66180931 18.84497128 -108.375 22.8125 C-108.30023438 23.78832031 -108.22546875 24.76414062 -108.1484375 25.76953125 C-108.09945312 26.50558594 -108.05046875 27.24164063 -108 28 C-105.6907968 26.33291205 -103.40479675 24.64400148 -101.125 22.9375 C-100.47402344 22.47150391 -99.82304687 22.00550781 -99.15234375 21.52539062 C-94.68777692 18.14244566 -93.05458867 15.69344388 -92 10 C-90.92745026 6.51421333 -90.03244628 4.04866942 -88 1 C-85.4375 0.75 -85.4375 0.75 -83 1 C-82.505 1.495 -82.505 1.495 -82 2 C-82.06662397 3.5868619 -82.20612004 5.17074416 -82.375 6.75 C-82.47167969 7.74257812 -82.56835938 8.73515625 -82.66796875 9.7578125 C-82.891544 11.94095902 -83.12347935 14.12326373 -83.36328125 16.3046875 C-84.07682628 23.61207632 -84.37999346 30.24001308 -81 37 C-72.90526921 36.83135978 -69.14359678 32.24729181 -63.75 26.67578125 C-59.13300884 22.00710342 -59.13300884 22.00710342 -57 16 C-57.37907282 13.81296615 -57.37907282 13.81296615 -58 12 C-57.01 12.33 -56.02 12.66 -55 13 C-54.90460938 12.42507812 -54.80921875 11.85015625 -54.7109375 11.2578125 C-53.84319105 8.50200233 -52.55337683 7.01492872 -50.625 4.875 C-50.01914062 4.19179687 -49.41328125 3.50859375 -48.7890625 2.8046875 C-45.74814621 -0.26278701 -43.67373491 -1.29156309 -39.4375 -1.3125 C-38.65246094 -1.32925781 -37.86742187 -1.34601563 -37.05859375 -1.36328125 C-36.03958984 -1.18345703 -36.03958984 -1.18345703 -35 -1 C-33 2 -33 2 -33.125 4.8125 C-35.0435852 11.80163182 -39.04699464 15.06294757 -44.87890625 18.8984375 C-47 20 -47 20 -50 20 C-48.90213575 25.40787385 -48.90213575 25.40787385 -45 29 C-37.35688724 28.84713774 -31.85395393 24.88468656 -25.6875 20.8125 C-22.55563858 17.53497061 -21.50638823 14.64222268 -19.9921875 10.4375 C-17.82232754 5.10682042 -14.18633611 1.52667656 -9 -1 C-5.41455891 -2.45658544 -3.42271107 -1.66510268 0 0 Z M-6 5 C-8.31 7.31 -10.62 9.62 -13 12 C-9.75434142 12.34055197 -9.75434142 12.34055197 -7.3125 9.5 C-6.549375 8.675 -5.78625 7.85 -5 7 C-5.33 6.34 -5.66 5.68 -6 5 Z M-44.625 8.5 C-45.40875 9.325 -46.1925 10.15 -47 11 C-46.67 11.66 -46.34 12.32 -46 13 C-42.08396696 10.20579508 -42.08396696 10.20579508 -40 6 C-42.36278736 5.77011494 -42.36278736 5.77011494 -44.625 8.5 Z M-73 43 C-73.66 43.66 -74.32 44.32 -75 45 C-73.68 44.67 -72.36 44.34 -71 44 C-71.66 43.67 -72.32 43.34 -73 43 Z M-119 47 C-121.2563046 49.44864532 -123.07771256 52.28594236 -125 55 C-125.72058594 55.99128906 -126.44117188 56.98257813 -127.18359375 58.00390625 C-135.61231567 69.8154879 -145.11292424 83.79792171 -143 99 C-141.33511854 102.23501125 -141.33511854 102.23501125 -138.375 102.625 C-132.73310856 101.58020529 -129.03600814 97.83902998 -125.7421875 93.24609375 C-118.21969653 79.53383658 -116.49394469 62.35034428 -117 47 C-117.66 47 -118.32 47 -119 47 Z " fill="#0C1E18" transform="translate(346,97)"/>
<path d="M0 0 C0.69692963 -0.00040283 1.39385925 -0.00080566 2.11190796 -0.0012207 C31.60691038 0.09632653 60.93814494 9.67636686 82.53515625 30.375 C84.4925107 32.25065 86.51508905 33.92688253 88.625 35.625 C95.3932613 41.49359467 101.69827532 49.45905063 105.6875 57.4375 C103.0475 58.7575 100.4075 60.0775 97.6875 61.4375 C95.93664666 59.37571926 94.18679619 57.31310123 92.4375 55.25 C91.94636719 54.67185547 91.45523438 54.09371094 90.94921875 53.49804688 C88.77391699 50.9311908 86.62687191 48.36038726 84.546875 45.71484375 C81.63667601 42.15046137 78.23649746 39.34919808 74.6875 36.4375 C73.83285156 35.73367187 72.97820312 35.02984375 72.09765625 34.3046875 C48.0943274 15.40494709 17.34638114 6.68002355 -13.0625 10.125 C-20.22352106 11.03958693 -27.16128738 12.73223938 -34.1171875 14.6328125 C-37.3125 15.4375 -37.3125 15.4375 -40.3125 15.4375 C-42.67143889 12.89710428 -43.57024273 10.77065529 -44.3125 7.4375 C-41.73178574 6.6363778 -39.14838151 5.84663443 -36.5625 5.0625 C-35.49708984 4.72992188 -35.49708984 4.72992188 -34.41015625 4.390625 C-23.04540489 0.97114229 -11.8373941 -0.00706341 0 0 Z " fill="#0E211B" transform="translate(160.3125,8.5625)"/>
<path d="M0 0 C-0.702956 26.11481536 -9.03689585 56.85867118 -28 76 C-29.32 76 -30.64 76 -32 76 C-34.25 73.5 -34.25 73.5 -36 71 C-35.3709375 70.175 -34.741875 69.35 -34.09375 68.5 C-23.99026946 54.977124 -14.56030184 39.16332022 -13 22 C-12.34 22 -11.68 22 -11 22 C-10.92652344 20.66195312 -10.92652344 20.66195312 -10.8515625 19.296875 C-10.77679688 18.12640625 -10.70203125 16.9559375 -10.625 15.75 C-10.55539062 14.58984375 -10.48578125 13.4296875 -10.4140625 12.234375 C-9.91446209 8.33183593 -9.28039484 6.12367215 -6.30859375 3.515625 C-5.69113281 3.09796875 -5.07367188 2.6803125 -4.4375 2.25 C-3.81746094 1.82203125 -3.19742188 1.3940625 -2.55859375 0.953125 C-1 0 -1 0 0 0 Z " fill="#0E221B" transform="translate(286,137)"/>
<path d="M0 0 C2.9375 2.125 2.9375 2.125 5 5 C4.8125 8.3125 4.8125 8.3125 4 11 C3.01 11 2.02 11 1 11 C0.34 9.35 -0.32 7.7 -1 6 C-7.46542307 7.18752669 -11.08879514 9.70483035 -15 15 C-20.00733683 23.05316485 -20.00733683 23.05316485 -22 32 C-17.22123046 27.3617825 -12.70160553 22.5524083 -9 17 C-8.34 17.33 -7.68 17.66 -7 18 C-7.6496875 18.79664063 -7.6496875 18.79664063 -8.3125 19.609375 C-8.869375 20.31578125 -9.42625 21.0221875 -10 21.75 C-10.556875 22.44609375 -11.11375 23.1421875 -11.6875 23.859375 C-13.34847198 26.14984749 -13.34847198 26.14984749 -13 30 C-11.68 29.01 -10.36 28.02 -9 27 C-11.24391213 32.27141261 -15.35209686 35.78747872 -20 39 C-23.9375 39.6875 -23.9375 39.6875 -27 39 C-29.53897254 35.19154119 -29.67652268 32.39739744 -29 28 C-25.52754862 16.5905169 -19.2728655 7.25304856 -9 1 C-5.63633609 -0.1212213 -3.52465728 -0.42295887 0 0 Z " fill="#091813" transform="translate(235,96)"/>
<path d="M0 0 C0.66 0 1.32 0 2 0 C4.46750835 5.29825397 6.60942856 10.55027054 8.2890625 16.15234375 C8.93597521 18.20664788 8.93597521 18.20664788 11 20 C11.1875 23.0625 11.1875 23.0625 11 26 C10.67 26.33 10.34 26.66 10 27 C9.95615553 28.66608987 9.9603287 30.33380554 10 32 C10 35 10 35 8.25 37.1875 C6 39 6 39 2 39 C1.81824219 38.05640625 1.63648438 37.1128125 1.44921875 36.140625 C-0.221462 21.9989704 -0.221462 21.9989704 -6 10 C-6 6 -6 6 -3.5625 3.3125 C-2.716875 2.549375 -1.87125 1.78625 -1 1 C-0.67 0.67 -0.34 0.34 0 0 Z " fill="#0F231C" transform="translate(274,84)"/>
<path d="M0 0 C0.66 0.33 1.32 0.66 2 1 C1.70833333 2.3125 1.41666667 3.625 1.125 4.9375 C0.94453125 5.75605469 0.7640625 6.57460937 0.578125 7.41796875 C0.20380498 9.08976289 -0.18095283 10.75926831 -0.578125 12.42578125 C-1.50342606 16.35831077 -2.26278255 19.92687052 -2 24 C2.28324091 21.48592381 4.64531705 19.87685861 6 15 C7.32 15.33 8.64 15.66 10 16 C10.66 14.68 11.32 13.36 12 12 C11.43796691 15.37219855 10.59844439 17.9911635 9 21 C8.690625 21.825 8.38125 22.65 8.0625 23.5 C6.10526316 28.10526316 6.10526316 28.10526316 4 30 C1.22606398 30.57451813 -1.22357423 30.55064812 -4 30 C-6.46651307 28.17000644 -6.877749 26.71027829 -7.390625 23.73046875 C-7.65917453 21.48666674 -7.8602582 19.25514359 -8 17 C-11.24732932 18.62366466 -11.70155136 21.75387839 -13 25 C-13.99 24.67 -14.98 24.34 -16 24 C-11.31733046 14.28921808 -11.31733046 14.28921808 -8.6875 10.5 C-6.81350905 8.22642246 -6.81350905 8.22642246 -7 6 C-6.34 6 -5.68 6 -5 6 C-5 5.34 -5 4.68 -5 4 C-4.01 3.34 -3.02 2.68 -2 2 C-1.34 1.34 -0.68 0.68 0 0 Z " fill="#11251E" transform="translate(189,113)"/>
<path d="M0 0 C20.97724601 1.88559515 41.16511831 14.75529444 56 29 C57.34973783 30.13030975 58.70374007 31.255552 60.0625 32.375 C65.0280329 36.67033828 68.97119895 41.84276162 73 47 C72.505 47.99 72.505 47.99 72 49 C71.33613281 48.26394531 70.67226563 47.52789062 69.98828125 46.76953125 C68.66376953 45.30580078 68.66376953 45.30580078 67.3125 43.8125 C66.00732422 42.36810547 66.00732422 42.36810547 64.67578125 40.89453125 C61.15942711 37.09070874 57.59097573 33.39972348 53.625 30.0625 C51.79839166 28.52513767 49.98383571 26.98549088 48.20703125 25.390625 C44.67728624 22.24268464 41.3803976 19.92310138 37 18 C37 17.34 37 16.68 37 16 C35.68 16 34.36 16 33 16 C33 15.34 33 14.68 33 14 C32.34 13.7525 31.68 13.505 31 13.25 C28.55807938 12.23253307 26.32663173 11.11763286 24 9.875 C20.85672424 8.26764308 18.59152609 7.55105924 15 8 C15.99 9.485 15.99 9.485 17 11 C16.34 11 15.68 11 15 11 C15 11.66 15 12.32 15 13 C15.70898438 13.10570312 16.41796875 13.21140625 17.1484375 13.3203125 C20.3360357 14.08009618 22.76150625 15.28942908 25.625 16.875 C27.03652344 17.64457031 27.03652344 17.64457031 28.4765625 18.4296875 C30.67624166 19.79852809 32.2863802 21.07936573 34 23 C30.36836385 21.63287828 26.94330384 19.97704068 23.47973633 18.23266602 C11.88553605 12.4752398 -0.20186368 8.93911156 -13 7 C-10.30388175 5.15842537 -9.16447195 4.97577067 -5.87109375 5.4609375 C-4.73800781 5.76257813 -3.60492188 6.06421875 -2.4375 6.375 C2.22534431 7.61761125 2.22534431 7.61761125 7 8 C7.66 7.01 8.32 6.02 9 5 C9 5.66 9 6.32 9 7 C9.66 7 10.32 7 11 7 C11 6.01 11 5.02 11 4 C10.28972656 3.87882813 9.57945312 3.75765625 8.84765625 3.6328125 C7.92855469 3.46523437 7.00945312 3.29765625 6.0625 3.125 C4.68771484 2.88136719 4.68771484 2.88136719 3.28515625 2.6328125 C2.15400391 2.31957031 2.15400391 2.31957031 1 2 C0.67 1.34 0.34 0.68 0 0 Z " fill="#030D08" transform="translate(189,12)"/>
<path d="M0 0 C0.6875 1.6875 0.6875 1.6875 1 4 C-0.63681917 7.27363833 -2.7567046 10.11576306 -5 13 C-3.02 12.67 -1.04 12.34 1 12 C1 13.65 1 15.3 1 17 C0.01 16.34 -0.98 15.68 -2 15 C-3.10408203 15.72316406 -3.10408203 15.72316406 -4.23046875 16.4609375 C-5.20628906 17.09257813 -6.18210937 17.72421875 -7.1875 18.375 C-8.15042969 19.00148437 -9.11335938 19.62796875 -10.10546875 20.2734375 C-15.28699942 23.36417509 -19.90761061 24.9776437 -26 24 C-29.93622829 21.95899274 -32.48209259 20.25014075 -34 16 C-38.41085576 20.28833199 -42.38136055 24.38862975 -45 30 C-45.66 30.99 -46.32 31.98 -47 33 C-50.625 33.6875 -50.625 33.6875 -54 34 C-53.1028125 33.4121875 -53.1028125 33.4121875 -52.1875 32.8125 C-49.72212014 30.76975669 -48.60912878 28.74892834 -47 26 C-46.278125 25.29875 -45.55625 24.5975 -44.8125 23.875 C-42.65248895 22.07514427 -42.65248895 22.07514427 -43 19 C-44.32 19.99 -45.64 20.98 -47 22 C-47.66 21.67 -48.32 21.34 -49 21 C-46.36 18.36 -43.72 15.72 -41 13 C-40.67 13.66 -40.34 14.32 -40 15 C-39.401875 14.835 -38.80375 14.67 -38.1875 14.5 C-36 14 -36 14 -33 14 C-31.96210419 15.64333504 -30.96432076 17.31243867 -30 19 C-26.3292724 21.44715174 -23.26427786 21.53108222 -19 21 C-17.3155411 20.37966103 -15.64363134 19.72159424 -14 19 C-14.81984375 19.05800781 -15.6396875 19.11601562 -16.484375 19.17578125 C-25.39622642 19.54888508 -25.39622642 19.54888508 -28.75 16.5 C-29.1625 15.675 -29.575 14.85 -30 14 C-29.34 13.67 -28.68 13.34 -28 13 C-27.484375 13.680625 -26.96875 14.36125 -26.4375 15.0625 C-24.10290042 17.3204571 -24.10290042 17.3204571 -20.8125 17.0625 C-13.65151626 15.06681601 -7.25524107 11.25524107 -2 6 C-0.58409628 2.84498835 -0.58409628 2.84498835 0 0 Z " fill="#06140E" transform="translate(325,109)"/>
<path d="M0 0 C0.99 0.33 1.98 0.66 3 1 C2.9071875 2.546875 2.9071875 2.546875 2.8125 4.125 C3.01950012 8.40300258 3.40049788 10.58815347 6 14 C8.76433652 14.82875572 11.07466386 14.90408734 14 15 C10.70095771 17.19936153 9.82580113 17.71177696 6 17 C3.63711236 15.28356275 1.62427018 13.43361443 0 11 C0 9.68 0 8.36 0 7 C-0.50789063 8.14597656 -1.01578125 9.29195312 -1.5390625 10.47265625 C-2.23376572 12.00288092 -2.9291128 13.5328134 -3.625 15.0625 C-3.95628906 15.81466797 -4.28757813 16.56683594 -4.62890625 17.34179688 C-6.95895081 22.4195355 -9.61019553 27.40225682 -14 31 C-17.875 31.4375 -17.875 31.4375 -21 31 C-24.22265625 25.82421875 -24.22265625 25.82421875 -25 24 C-24.505 22.515 -24.505 22.515 -24 21 C-23.34 22.32 -22.68 23.64 -22 25 C-21.34 24.67 -20.68 24.34 -20 24 C-20.33 23.01 -20.66 22.02 -21 21 C-21.27991615 18.51468391 -21.50828905 16.05472695 -21.6875 13.5625 C-21.74744141 12.89412109 -21.80738281 12.22574219 -21.86914062 11.53710938 C-22.14087704 7.78119098 -22.12327178 5.18084009 -20 2 C-19.93941406 3.07378906 -19.87882813 4.14757812 -19.81640625 5.25390625 C-19.73192349 6.69011315 -19.64727946 8.12631058 -19.5625 9.5625 C-19.52318359 10.26697266 -19.48386719 10.97144531 -19.44335938 11.69726562 C-19.17481721 16.1798541 -18.69383803 20.56293497 -18 25 C-12.46180277 20.43913169 -9.97724478 14.41488823 -7 8 C-5.68 8.66 -4.36 9.32 -3 10 C-2.01 6.7 -1.02 3.4 0 0 Z " fill="#0B1B15" transform="translate(179,128)"/>
<path d="M0 0 C0.33 0 0.66 0 1 0 C0.61008563 6.62854426 -1.40847269 12.0238731 -3.94140625 18.14453125 C-5.17380339 20.96125733 -5.17380339 20.96125733 -5 24 C-4.34 24.66 -3.68 25.32 -3 26 C-2.49339844 24.93458984 -2.49339844 24.93458984 -1.9765625 23.84765625 C-1.53054687 22.92855469 -1.08453125 22.00945312 -0.625 21.0625 C-0.18414062 20.14597656 0.25671875 19.22945312 0.7109375 18.28515625 C2 16 2 16 4 15 C0.71289158 26.1396452 -4.90810754 37.53135951 -13 46 C-17 46 -17 46 -20 44 C-18.72154433 40.40138404 -17.02251535 37.30992336 -14.97875977 34.08984375 C-8.24347046 23.46452657 -3.27449032 12.14883365 0 0 Z " fill="#0D2019" transform="translate(107,167)"/>
<path d="M0 0 C-0.2165625 1.63195312 -0.2165625 1.63195312 -0.4375 3.296875 C-1.43180388 11.07036223 -2.23077338 18.62863624 -1.97265625 26.484375 C-2 29 -2 29 -2.51953125 31.38671875 C-3.13111199 34.71312133 -2.89155542 37.69453623 -2.625 41.0625 C-2.53476563 42.27035156 -2.44453125 43.47820312 -2.3515625 44.72265625 C-2.07831798 47.26990237 -1.7201056 49.55286149 -1 52 C-2.32 52 -3.64 52 -5 52 C-6.68158146 48.33135949 -7.24028871 45.50583953 -7.1953125 41.48046875 C-7.18886719 40.45888672 -7.18242187 39.43730469 -7.17578125 38.38476562 C-7.15902344 37.32966797 -7.14226562 36.27457031 -7.125 35.1875 C-7.11597656 34.11306641 -7.10695312 33.03863281 -7.09765625 31.93164062 C-7.07415306 29.28753146 -7.04129575 26.64388128 -7 24 C-7.66 23.67 -8.32 23.34 -9 23 C-9.99 22.34 -10.98 21.68 -12 21 C-11 19 -10 17 -9 15 C-8.34 15 -7.68 15 -7 15 C-6.96261719 14.08476563 -6.92523438 13.16953125 -6.88671875 12.2265625 C-6.82097656 11.03804687 -6.75523437 9.84953125 -6.6875 8.625 C-6.62949219 7.44164063 -6.57148438 6.25828125 -6.51171875 5.0390625 C-6.34285156 4.03617187 -6.17398438 3.03328125 -6 2 C-3 0 -3 0 0 0 Z " fill="#10251F" transform="translate(161,101)"/>
<path d="M0 0 C0.66 0.33 1.32 0.66 2 1 C1.01 1.33 0.02 1.66 -1 2 C0.32 3.32 1.64 4.64 3 6 C3.33 5.34 3.66 4.68 4 4 C5.7421875 2.9296875 5.7421875 2.9296875 7.875 1.875 C8.57367188 1.52179688 9.27234375 1.16859375 9.9921875 0.8046875 C12 0 12 0 15 0 C15.495 2.97 15.495 2.97 16 6 C15.34 6 14.68 6 14 6 C13.67 6.66 13.34 7.32 13 8 C13 6.02 13 4.04 13 2 C12.34628418 2.38220703 11.69256836 2.76441406 11.01904297 3.15820312 C9.07156973 4.2964836 7.12387838 5.43439097 5.17602539 6.57202148 C2.96647914 7.86251677 0.75733499 9.15370073 -1.45141602 10.44555664 C-6.69083811 13.50558936 -11.9390348 16.54126425 -17.24047852 19.49243164 C-22.67883129 22.52104099 -27.53763289 25.74703295 -32.23046875 29.84765625 C-32.81441406 30.22792969 -33.39835937 30.60820312 -34 31 C-34.99 30.67 -35.98 30.34 -37 30 C-34.14801691 26.9895734 -31.79135683 24.67265743 -28 23 C-26.35511876 22.0788665 -24.7116175 21.15496051 -23.08203125 20.20703125 C-21.505123 19.29283867 -19.91714281 18.39771009 -18.32421875 17.51171875 C-17.41285156 16.99222656 -16.50148438 16.47273438 -15.5625 15.9375 C-14.69753906 15.45152344 -13.83257812 14.96554688 -12.94140625 14.46484375 C-12.30074219 13.98144531 -11.66007812 13.49804688 -11 13 C-11 12.01 -11 11.02 -11 10 C-12.65 10.66 -14.3 11.32 -16 12 C-16 12.99 -16 13.98 -16 15 C-16.99 14.67 -17.98 14.34 -19 14 C-21.26886421 15.01662187 -21.26886421 15.01662187 -23.5625 16.5 C-25.94140625 17.96875 -25.94140625 17.96875 -28 19 C-28.66 18.67 -29.32 18.34 -30 18 C-22.10675502 12.99752786 -14.19644888 8.02387902 -6.125 3.3125 C-4.99320313 2.64863281 -3.86140625 1.98476562 -2.6953125 1.30078125 C-1.80585937 0.87152344 -0.91640625 0.44226563 0 0 Z " fill="#0A1B15" transform="translate(95,159)"/>
<path d="M0 0 C5.91389046 4.37213692 8.07244545 11.03681237 9.6875 17.9375 C10.09874913 21.9677415 10.08094066 25.95296719 10 30 C8.68 30.66 7.36 31.32 6 32 C5.87882812 31.32195312 5.75765625 30.64390625 5.6328125 29.9453125 C3.83531229 18.84690388 3.83531229 18.84690388 1 8 C0.01 7.67 -0.98 7.34 -2 7 C-2 6.34 -2 5.68 -2 5 C-3.37285156 4.80083984 -3.37285156 4.80083984 -4.7734375 4.59765625 C-5.96195313 4.42105469 -7.15046875 4.24445313 -8.375 4.0625 C-10.15003906 3.80146484 -10.15003906 3.80146484 -11.9609375 3.53515625 C-15 3 -15 3 -17 2 C-17 1.01 -17 0.02 -17 -1 C-10.98443848 -3.99122417 -6.01796652 -2.44632785 0 0 Z " fill="#11251F" transform="translate(107,108)"/>
<path d="M0 0 C1.15077953 2.21936052 2.09849728 4.30252735 2.875 6.6875 C3.73399076 9.13757029 3.73399076 9.13757029 5.7734375 9.63671875 C8.13961746 10.02277969 10.35259361 10.13263505 12.75 10.125 C13.62398437 10.12371094 14.49796875 10.12242187 15.3984375 10.12109375 C17.8108942 10.00880222 20.01076117 9.65237842 22.375 9.1875 C23.57125 9.125625 24.7675 9.06375 26 9 C28.5 11.4375 28.5 11.4375 30 14 C21.61596564 17.70832289 13.69766146 19.81973048 4.625 16.8125 C1.05896644 15.31101218 -0.87930515 13.26940456 -3 10 C-1.68 9.34 -0.36 8.68 1 8 C0.649375 7.05125 0.29875 6.1025 -0.0625 5.125 C-1 2 -1 2 0 0 Z " fill="#0B1B15" transform="translate(39,220)"/>
<path d="M0 0 C0.495 1.98 0.495 1.98 1 4 C-14.26890756 13.82953181 -14.26890756 13.82953181 -19.1875 15.9375 C-21.25193717 16.99794446 -21.25193717 16.99794446 -23 19.5625 C-25.16845753 22.20530761 -25.83569628 22.34531647 -29 23 C-29.33 23.99 -29.66 24.98 -30 26 C-30.66 26 -31.32 26 -32 26 C-32.66 27.32 -33.32 28.64 -34 30 C-35.32 29.67 -36.64 29.34 -38 29 C-37.4409112 25.75728494 -36.5867822 24.06942576 -34 22 C-33.34 22 -32.68 22 -32 22 C-31.89365234 21.13568359 -31.89365234 21.13568359 -31.78515625 20.25390625 C-30.13272365 15.51035595 -25.02106694 12.71944989 -21 10 C-18.35636901 8.74199629 -15.80104806 7.90203243 -13 7 C-12.05125 6.4225 -11.1025 5.845 -10.125 5.25 C-9.42375 4.8375 -8.7225 4.425 -8 4 C-6 5 -6 5 -5 6 C-5 5.01 -5 4.02 -5 3 C-2.5 1.3125 -2.5 1.3125 0 0 Z " fill="#11251F" transform="translate(84,168)"/>
<path d="M0 0 C0.66 0.33 1.32 0.66 2 1 C2.22047662 6.07096218 1.58217958 10.49674413 0.5 15.44921875 C0.02470835 17.87394883 -0.23630041 20.2269967 -0.4375 22.6875 C-1.09070761 29.06190527 -3.15470104 33.63923094 -8 38 C-8.33 38.66 -8.66 39.32 -9 40 C-10.32 40 -11.64 40 -13 40 C-12.731875 39.360625 -12.46375 38.72125 -12.1875 38.0625 C-9.0350198 29.98957965 -9.0350198 29.98957965 -7.5 21.5 C-6.80231845 13.6339825 -3.64484266 6.91263264 0 0 Z " fill="#081611" transform="translate(232,155)"/>
<path d="M0 0 C0.99 0.33 1.98 0.66 3 1 C2.42581682 6.92974629 -0.98113703 9.14422376 -5.30078125 12.84765625 C-12.47708471 18.57000532 -19.46108027 23.00409681 -29 22 C-31.67591391 20.9200586 -33.59678392 19.68225126 -36 18 C-36.33 17.01 -36.66 16.02 -37 15 C-33 17 -33 17 -31.25 18.09375 C-28.22663256 19.31149522 -25.97174984 18.9751902 -22.75 18.625 C-21.13351562 18.45871094 -21.13351562 18.45871094 -19.484375 18.2890625 C-18.25460937 18.14597656 -18.25460937 18.14597656 -17 18 C-17 17.34 -17 16.68 -17 16 C-18.98 16.33 -20.96 16.66 -23 17 C-23.33 16.34 -23.66 15.68 -24 15 C-23.40574219 14.81566406 -22.81148438 14.63132812 -22.19921875 14.44140625 C-15.48971641 12.09360217 -10.70398466 8.6630198 -5.34765625 4.0234375 C-3 2 -3 2 0 0 Z " fill="#020B06" transform="translate(363,111)"/>
<path d="M0 0 C1 1 1 1 1.4375 4.0625 C0.84754761 9.37207152 -1.19916902 12.3189431 -5 16 C-8.08631788 18.04039905 -11.2290182 20 -15 20 C-14.44967902 23.4306283 -14.44967902 23.4306283 -13 27 C-10.01565163 28.99425024 -10.01565163 28.99425024 -7 30 C-7 30.33 -7 30.66 -7 31 C-13.39976553 30.63774912 -13.39976553 30.63774912 -16 27.875 C-17.28253576 24.18770969 -16.93913278 21.75653114 -16 18 C-15.34 17.67 -14.68 17.34 -14 17 C-14.66 16.01 -15.32 15.02 -16 14 C-13 12 -13 12 -9.9375 11.3125 C-8.968125 10.879375 -7.99875 10.44625 -7 10 C-5.77030122 6.48809191 -5.77030122 6.48809191 -5 3 C-4.01 2.67 -3.02 2.34 -2 2 C-5.59182737 0.69388095 -6.91979615 0.96562692 -10.5 2.5 C-14.44504209 4.95162353 -16.53460677 8.11513794 -19 12 C-19.33 11.34 -19.66 10.68 -20 10 C-16.24108521 4.56184492 -13.25745569 0.72959138 -7 -1.8125 C-4.24246379 -2.07101902 -2.4592811 -1.19640702 0 0 Z " fill="#06150F" transform="translate(346,97)"/>
<path d="M0 0 C4.95910927 4.95910927 3.24464381 14.79814391 3.25537109 21.3359375 C3.18141302 30.11062367 2.54061097 38.77526229 1.625 47.5 C1.49899414 48.72855713 1.37298828 49.95711426 1.24316406 51.22290039 C0.50345276 57.70828695 0.50345276 57.70828695 0 60 C-0.99 60.495 -0.99 60.495 -2 61 C-1.9278125 60.14019531 -1.855625 59.28039062 -1.78125 58.39453125 C-1.14114331 50.24206133 -0.87776659 42.17605706 -1 34 C-1.99 34.495 -1.99 34.495 -3 35 C-3.66 34.67 -4.32 34.34 -5 34 C-5.66 38.62 -6.32 43.24 -7 48 C-7.33 48 -7.66 48 -8 48 C-8.24202174 41.10238048 -7.48320475 34.58186813 -6.51171875 27.75390625 C-5.84292268 22.84769994 -5.38988964 17.93518204 -5 13 C-4.67 13 -4.34 13 -4 13 C-3.67 17.29 -3.34 21.58 -3 26 C0.30020577 24.2941426 0.30020577 24.2941426 0.71484375 20.93359375 C1.03100786 16.5722615 0.886954 12.41465881 0.5625 8.0625 C0.51029297 7.28326172 0.45808594 6.50402344 0.40429688 5.70117188 C0.27601936 3.80033228 0.13892679 1.90009096 0 0 Z " fill="#0A1B15" transform="translate(48,27)"/>
<path d="M0 0 C2.45506534 4.62286409 3.78314635 9.49504102 5.25 14.5 C5.54390625 15.45003906 5.8378125 16.40007812 6.140625 17.37890625 C6.40875 18.29542969 6.676875 19.21195313 6.953125 20.15625 C7.32679199 21.40631836 7.32679199 21.40631836 7.70800781 22.68164062 C8.06226177 25.49434598 7.51144093 26.64434227 6 29 C4.5 30.75 4.5 30.75 3 32 C2.34 32 1.68 32 1 32 C-5.00238597 20.66513722 -2.91378746 12.19281302 0 0 Z " fill="#091913" transform="translate(45,153)"/>
<path d="M0 0 C0.66 0.33 1.32 0.66 2 1 C2.33 1.99 2.66 2.98 3 4 C3.99 3.34 4.98 2.68 6 2 C6.33 3.65 6.66 5.3 7 7 C5.35 7.33 3.7 7.66 2 8 C2.33 8.99 2.66 9.98 3 11 C1.890625 12.75390625 1.890625 12.75390625 0.25 14.5625 C-0.28109375 15.16191406 -0.8121875 15.76132813 -1.359375 16.37890625 C-3 18 -3 18 -6 20 C-8.6875 19.625 -8.6875 19.625 -11 19 C-11.671875 17.296875 -11.671875 17.296875 -12 15 C-10.890625 12.640625 -10.890625 12.640625 -9.25 10.25 C-8.71890625 9.45078125 -8.1878125 8.6515625 -7.640625 7.828125 C-7.09921875 7.22484375 -6.5578125 6.6215625 -6 6 C-5.01 6 -4.02 6 -3 6 C-2.690625 5.195625 -2.38125 4.39125 -2.0625 3.5625 C-1 1 -1 1 0 0 Z M7 3 C10 4 10 4 10 4 Z " fill="#11261F" transform="translate(76,107)"/>
<path d="M0 0 C-0.26589986 10.98166413 -1.4325202 20.52986162 -5 31 C-5.66 31 -6.32 31 -7 31 C-7 30.34 -7 29.68 -7 29 C-7.99 29.33 -8.98 29.66 -10 30 C-11.17032973 26.48901081 -10.74116871 25.44066686 -9.625 22 C-9.34914063 21.13375 -9.07328125 20.2675 -8.7890625 19.375 C-8.19369573 17.58300498 -7.59713547 15.79140642 -7 14 C-6.9006457 12.16746507 -6.8190188 10.33392801 -6.75 8.5 C-6.33747339 3.29528921 -6.33747339 3.29528921 -3.5 0.8125 C-1 0 -1 0 0 0 Z " fill="#10251E" transform="translate(284,141)"/>
<path d="M0 0 C1.48976459 0.70726198 2.96662996 1.44173906 4.4375 2.1875 C5.26121094 2.59355469 6.08492187 2.99960938 6.93359375 3.41796875 C9 5 9 5 9.78515625 7.67578125 C9.85605469 8.44277344 9.92695312 9.20976562 10 10 C9.01 10.66 8.02 11.32 7 12 C6.27617533 14.05925139 6.27617533 14.05925139 6 16 C3.13275314 15.42655063 2.1385485 15.1385485 0 13 C0.33 12.34 0.66 11.68 1 11 C0.01 11.33 -0.98 11.66 -2 12 C-2 12.66 -2 13.32 -2 14 C-0.03852126 15.38938077 1.96166576 16.7260411 4 18 C3.67 18.66 3.34 19.32 3 20 C-1.05281712 18.77472971 -4.44360764 17.30119506 -8 15 C-6.62712658 11.30123909 -4.93644547 8.0485524 -2.875 4.6875 C-2.33617188 3.80449219 -1.79734375 2.92148438 -1.2421875 2.01171875 C-0.83226563 1.34785156 -0.42234375 0.68398437 0 0 Z M0 6 C0 6.66 0 7.32 0 8 C0.66 7.67 1.32 7.34 2 7 C1.34 6.67 0.68 6.34 0 6 Z " fill="#040D08" transform="translate(100,228)"/>
<path d="M0 0 C3.74467376 1.72649169 5.77239363 3.45233059 8 7 C7.92900193 9.98191888 7.53988067 11.38970012 5.5625 13.625 C5.046875 14.07875 4.53125 14.5325 4 15 C3.01 16.485 3.01 16.485 2 18 C-0.75 18.5625 -0.75 18.5625 -4 18 C-6.32422059 16.18584592 -8.04197498 14.23774289 -10 12 C-8.52278578 8.54798361 -6.56205999 6.35038064 -3.875 3.75 C-3.15054688 3.04359375 -2.42609375 2.3371875 -1.6796875 1.609375 C-1.12539062 1.07828125 -0.57109375 0.5471875 0 0 Z M1 4 C0.01 5.485 0.01 5.485 -1 7 C-0.01 7.99 0.98 8.98 2 10 C2.66 9.67 3.32 9.34 4 9 C3.34 7.35 2.68 5.7 2 4 C1.67 4 1.34 4 1 4 Z M-4 9 C-4.99 10.485 -4.99 10.485 -6 12 C-5.01 12.99 -4.02 13.98 -3 15 C-2.01 14.67 -1.02 14.34 0 14 C-0.66 14 -1.32 14 -2 14 C-2 13.34 -2 12.68 -2 12 C-1.34 11.67 -0.68 11.34 0 11 C-1.32 10.34 -2.64 9.68 -4 9 Z " fill="#040C08" transform="translate(77,210)"/>
<path d="M0 0 C2.24331928 6.72995785 -3.59485847 15.25587466 -6.609375 21.3515625 C-7.56762343 23.23707447 -8.5311933 25.11989122 -9.5 27 C-9.96245117 27.9079834 -10.42490234 28.8159668 -10.90136719 29.75146484 C-13.44877031 34.59477587 -15.85964217 38.39968884 -20 42 C-18.55049545 38.2089881 -16.84827434 34.6125362 -15 31 C-16.32 30.67 -17.64 30.34 -19 30 C-19.40089844 30.68449219 -19.80179688 31.36898437 -20.21484375 32.07421875 C-22.23632148 35.38731902 -24.37336809 38.60915363 -26.5625 41.8125 C-27.16094727 42.7087207 -27.16094727 42.7087207 -27.77148438 43.62304688 C-28.7955948 45.11903456 -29.89249439 46.56465592 -31 48 C-31.66 48 -32.32 48 -33 48 C-31.22210358 44.0611245 -28.74678934 40.61231627 -26.3125 37.0625 C-21.70776593 30.26938576 -17.72379475 23.31195459 -14 16 C-13.34 16.99 -12.68 17.98 -12 19 C-12.66 19 -13.32 19 -14 19 C-14 21.31 -14 23.62 -14 26 C-13.01 25.34 -12.02 24.68 -11 24 C-10.34 23.67 -9.68 23.34 -9 23 C-8.27118911 21.02179902 -7.62486441 19.01345199 -7 17 C-4.97979565 11.15614706 -2.94397611 5.44635581 0 0 Z " fill="#081610" transform="translate(113,52)"/>
<path d="M0 0 C1.34592097 1.65651812 2.67518731 3.32655239 4 5 C4.52851562 5.66257813 5.05703125 6.32515625 5.6015625 7.0078125 C6.14554688 7.70648438 6.68953125 8.40515625 7.25 9.125 C7.77078125 9.78757813 8.2915625 10.45015625 8.828125 11.1328125 C10 13 10 13 10 16 C7 18.1875 7 18.1875 4 20 C0.33552232 15.87135515 -3.26543148 11.81284059 -6 7 C-5.67 6.01 -5.34 5.02 -5 4 C-4.34 4 -3.68 4 -3 4 C-3 3.34 -3 2.68 -3 2 C-2.01 1.34 -1.02 0.68 0 0 Z " fill="#10261F" transform="translate(61,195)"/>
<path d="M0 0 C0.66 0 1.32 0 2 0 C1.91621094 0.88300781 1.83242187 1.76601562 1.74609375 2.67578125 C0.72287647 14.73420258 0.42192551 24.53488149 7 35 C4.66666667 35 2.33333333 35 0 35 C-4.97629316 29.25812328 -4.17841194 20.93518601 -3.6875 13.8125 C-2.57215665 2.57215665 -2.57215665 2.57215665 0 0 Z " fill="#0E221C" transform="translate(14,73)"/>
<path d="M0 0 C3.63 0 7.26 0 11 0 C12.77816332 4.4454083 13.23418906 6.28115397 13.125 10.8125 C13.10695312 11.78832031 13.08890625 12.76414062 13.0703125 13.76953125 C13.03550781 14.87361328 13.03550781 14.87361328 13 16 C10.5625 15.625 10.5625 15.625 8 15 C7.67 14.34 7.34 13.68 7 13 C4.97536745 12.34786708 4.97536745 12.34786708 3 12 C3 13.32 3 14.64 3 16 C2.01 16 1.02 16 0 16 C0 10.72 0 5.44 0 0 Z M3 4 C4.98 4 6.96 4 9 4 C8.67 3.34 8.34 2.68 8 2 C5.67642489 1.81509993 5.67642489 1.81509993 3 4 Z M3 5 C3 5.66 3 6.32 3 7 C4.98 7 6.96 7 9 7 C8.34 6.34 7.68 5.68 7 5 C5.68 5 4.36 5 3 5 Z M3 9 C3.33 9.66 3.66 10.32 4 11 C4.99 10.67 5.98 10.34 7 10 C5.68 9.67 4.36 9.34 3 9 Z " fill="#050D07" transform="translate(154,246)"/>
<path d="M0 0 C0.33 1.32 0.66 2.64 1 4 C-0.65 4.66 -2.3 5.32 -4 6 C-2.700625 5.979375 -1.40125 5.95875 -0.0625 5.9375 C1.29165633 5.91600546 2.64756083 5.92851801 4 6 C5 7 5 7 5.3125 9.875 C5 13 5 13 3.375 14.875 C0.39582309 16.28618906 -1.73834906 16.28362182 -5 16 C-5.66 15.67 -6.32 15.34 -7 15 C-6.67 13.68 -6.34 12.36 -6 11 C-6.66 10.62875 -7.32 10.2575 -8 9.875 C-10 8 -10 8 -10.4375 4.9375 C-10.293125 3.968125 -10.14875 2.99875 -10 2 C-6.3558226 -0.4294516 -4.28758728 -0.16179575 0 0 Z M-3 11 C-3 11.99 -3 12.98 -3 14 C-1.35 13.34 0.3 12.68 2 12 C2 11.67 2 11.34 2 11 C0.35 11 -1.3 11 -3 11 Z " fill="#050E08" transform="translate(222,231)"/>
<path d="M0 0 C-0.52327878 19.43980684 -5.02692633 37.66625828 -14 55 C-14.84501676 52.64864902 -15.19761674 51.47192058 -14.21484375 49.125 C-13.79332031 48.42375 -13.37179687 47.7225 -12.9375 47 C-6.05851653 33.93571206 -3.04098443 19.67242592 -3 5 C-4.65 5.66 -6.3 6.32 -8 7 C-7.96519531 7.7734375 -7.93039062 8.546875 -7.89453125 9.34375 C-7.74409776 15.13185771 -7.84551714 19.80144901 -10.203125 25.1171875 C-11.07565277 27.17874822 -11.61002712 29.19806919 -12.125 31.375 C-13 35 -13 35 -14 37 C-14.66 36.67 -15.32 36.34 -16 36 C-15.01 31.38 -14.02 26.76 -13 22 C-12.34 22 -11.68 22 -11 22 C-10.92652344 20.66195312 -10.92652344 20.66195312 -10.8515625 19.296875 C-10.77679688 18.12640625 -10.70203125 16.9559375 -10.625 15.75 C-10.55539062 14.58984375 -10.48578125 13.4296875 -10.4140625 12.234375 C-9.91446209 8.33183593 -9.28039484 6.12367215 -6.30859375 3.515625 C-5.69113281 3.09796875 -5.07367188 2.6803125 -4.4375 2.25 C-3.81746094 1.82203125 -3.19742187 1.3940625 -2.55859375 0.953125 C-1 0 -1 0 0 0 Z " fill="#05110C" transform="translate(286,137)"/>
<path d="M0 0 C-0.165 0.804375 -0.33 1.60875 -0.5 2.4375 C-1.03191839 4.7284443 -1.03191839 4.7284443 -1 6 C-0.34 6 0.32 6 1 6 C1 6.99 1 7.98 1 9 C-1 11 -1 11 -4 13 C-4.66 13 -5.32 13 -6 13 C-6 13.66 -6 14.32 -6 15 C-5.0925 14.67 -4.185 14.34 -3.25 14 C0 13 0 13 4 13 C4 13.99 4 14.98 4 16 C-0.26616316 17.13764351 -3.56486311 18 -8 18 C-8.69821417 15.89936424 -9.38324472 13.79434263 -10.0625 11.6875 C-10.44535156 10.51574219 -10.82820312 9.34398437 -11.22265625 8.13671875 C-12 5 -12 5 -11 2 C-9.2578125 1.26953125 -9.2578125 1.26953125 -7.125 0.8125 C-6.42632812 0.65394531 -5.72765625 0.49539062 -5.0078125 0.33203125 C-3 0 -3 0 0 0 Z M-7 4 C-3 5 -3 5 -3 5 Z " fill="#050D08" transform="translate(195,241)"/>
<path d="M0 0 C0.10466648 8.07094823 0.03387512 15.9874678 -1 24 C-4 25 -4 25 -7 24 C-8.55229744 15.81515897 -7.01754006 9.01316758 -5 1 C-1.125 0 -1.125 0 0 0 Z " fill="#11251F" transform="translate(48,60)"/>
<path d="M0 0 C8.57142857 1 8.57142857 1 12 2 C12 2.99 12 3.98 12 5 C9.36 4.67 6.72 4.34 4 4 C3.67 4.66 3.34 5.32 3 6 C5.31 6.66 7.62 7.32 10 8 C10 8.99 10 9.98 10 11 C7.03 10.67 4.06 10.34 1 10 C1 11.32 1 12.64 1 14 C3.64 14.33 6.28 14.66 9 15 C9 15.99 9 16.98 9 18 C0.42857143 17 0.42857143 17 -3 16 C-2.40984815 10.49191603 -1.43336231 5.35121931 0 0 Z " fill="#050F09" transform="translate(125,241)"/>
<path d="M0 0 C8.69830028 7.33002833 8.69830028 7.33002833 11 10 C11 10.99 11 11.98 11 13 C8.03824877 12.38722388 6.61941217 11.74627478 4 10 C3.01 11.32 2.02 12.64 1 14 C1.495 14.433125 1.99 14.86625 2.5 15.3125 C4 17 4 17 4 20 C-0.10447392 19.48223379 -1.95699523 17.35372556 -4.75 14.4375 C-5.94882813 13.19806641 -5.94882813 13.19806641 -7.171875 11.93359375 C-7.77515625 11.29550781 -8.3784375 10.65742188 -9 10 C-8.67 9.01 -8.34 8.02 -8 7 C-7.401875 7.33 -6.80375 7.66 -6.1875 8 C-3.94613529 9.20787988 -3.94613529 9.20787988 -1 9 C0.21690533 7.23470405 0.21690533 7.23470405 1 5 C0.21690533 2.76529595 0.21690533 2.76529595 -1 1 C-0.67 0.67 -0.34 0.34 0 0 Z " fill="#060E09" transform="translate(243,210)"/>
<path d="M0 0 C0.66 0 1.32 0 2 0 C2 2 2 2 -0.5 4.625 C-1.325 5.40875 -2.15 6.1925 -3 7 C-2.67 7.66 -2.34 8.32 -2 9 C-1.01 8.67 -0.02 8.34 1 8 C1.33 7.34 1.66 6.68 2 6 C2.66 6 3.32 6 4 6 C4.33 4.68 4.66 3.36 5 2 C6.32 2.33 7.64 2.66 9 3 C7.02 3.99 7.02 3.99 5 5 C5 5.66 5 6.32 5 7 C4.34 7 3.68 7 3 7 C2.72929688 7.59425781 2.45859375 8.18851563 2.1796875 8.80078125 C1.01800148 10.96644094 -0.18837874 12.41785852 -1.875 14.1875 C-6.16380001 19.05303351 -8.56576034 24.70922605 -10 31 C-10.66 30.67 -11.32 30.34 -12 30 C-11.7834375 29.32453125 -11.566875 28.6490625 -11.34375 27.953125 C-10.92609375 26.61507812 -10.92609375 26.61507812 -10.5 25.25 C-10.2215625 24.36828125 -9.943125 23.4865625 -9.65625 22.578125 C-8.83554715 19.79732471 -8.83554715 19.79732471 -9 16 C-9.99 16 -10.98 16 -12 16 C-10.58794973 11.70983633 -8.50383651 9.03782149 -5.4375 5.75 C-4.22900391 4.44289062 -4.22900391 4.44289062 -2.99609375 3.109375 C-1 1 -1 1 0 0 Z " fill="#091A13" transform="translate(50,188)"/>
<path d="M0 0 C1.8828125 0.5390625 1.8828125 0.5390625 3.8828125 3.5390625 C3.65982783 8.55621749 2.01358156 11.6667955 -1.1171875 15.5390625 C-3.37242952 17.38294063 -5.67203328 18.94030782 -8.1171875 20.5390625 C-8.7771875 20.2090625 -9.4371875 19.8790625 -10.1171875 19.5390625 C-9.4571875 18.5490625 -8.7971875 17.5590625 -8.1171875 16.5390625 C-9.4371875 16.2090625 -10.7571875 15.8790625 -12.1171875 15.5390625 C-11.9921875 13.8515625 -11.9921875 13.8515625 -11.1171875 11.5390625 C-8.1171875 9.0390625 -8.1171875 9.0390625 -5.1171875 6.5390625 C-4.17282401 4.37375082 -4.17282401 4.37375082 -4.1171875 2.5390625 C-3.1271875 2.8690625 -2.1371875 3.1990625 -1.1171875 3.5390625 C-1.5853996 8.31482589 -2.36050748 11.58382595 -5.1171875 15.5390625 C-2.38441529 13.36685895 -0.38829835 11.68078285 0.4375 8.203125 C0.66931272 5.97631798 0.82918262 3.77689132 0.8828125 1.5390625 C-6.47993485 1.5390625 -10.07718632 5.52191847 -15.1171875 10.5390625 C-15.1171875 7.5390625 -15.1171875 7.5390625 -13.68359375 5.71484375 C-9.1803356 1.52760372 -6.20742246 -0.23791515 0 0 Z M-7.7421875 10.0390625 C-8.5259375 10.8640625 -9.3096875 11.6890625 -10.1171875 12.5390625 C-9.7871875 13.1990625 -9.4571875 13.8590625 -9.1171875 14.5390625 C-5.20115446 11.74485758 -5.20115446 11.74485758 -3.1171875 7.5390625 C-5.47997486 7.30917744 -5.47997486 7.30917744 -7.7421875 10.0390625 Z " fill="#05130E" transform="translate(309.1171875,95.4609375)"/>
<path d="M0 0 C5.13149711 6.88700928 6.14362045 14.78307634 5.375 23.1875 C4.82577836 26.88183703 4.15276629 30.53477618 3.375 34.1875 C3.045 34.1875 2.715 34.1875 2.375 34.1875 C2.705 25.9375 3.035 17.6875 3.375 9.1875 C1.725 8.8575 0.075 8.5275 -1.625 8.1875 C-1.295 9.1775 -0.965 10.1675 -0.625 11.1875 C-0.74609375 13.44921875 -0.74609375 13.44921875 -1.0625 15.875 C-1.16433594 16.68324219 -1.26617187 17.49148437 -1.37109375 18.32421875 C-1.45488281 18.93910156 -1.53867188 19.55398437 -1.625 20.1875 C-1.955 20.1875 -2.285 20.1875 -2.625 20.1875 C-3.285 16.2275 -3.945 12.2675 -4.625 8.1875 C-9.33558562 6.8153958 -9.33558562 6.8153958 -12.625 8.1875 C-12.625 7.5275 -12.625 6.8675 -12.625 6.1875 C-11.965 6.1875 -11.305 6.1875 -10.625 6.1875 C-10.295 5.1975 -9.965 4.2075 -9.625 3.1875 C-6.42597361 3.09863816 -3.69822544 3.27691469 -0.625 4.1875 C-2.29454819 0.96345022 -2.29454819 0.96345022 -5.25 0.5 C-6.03375 0.396875 -6.8175 0.29375 -7.625 0.1875 C-7.625 -0.1425 -7.625 -0.4725 -7.625 -0.8125 C-4.15236111 -2.1023373 -3.11099108 -2.14806527 0 0 Z " fill="#081711" transform="translate(111.625,17.8125)"/>
<path d="M0 0 C2.93525102 2.93525102 2.93726606 6.02266799 3 10 C2.45289605 17.5581398 1.05230139 24.15312302 -4 30 C-4.99 30.66 -5.98 31.32 -7 32 C-6.71125 31.443125 -6.4225 30.88625 -6.125 30.3125 C-4.95710257 27.91182195 -3.97040821 25.48667104 -3 23 C-2.33333333 21.33333333 -1.66666667 19.66666667 -1 18 C-2.32 17.67 -3.64 17.34 -5 17 C-5.12375 17.78375 -5.2475 18.5675 -5.375 19.375 C-6 22 -6 22 -8 24 C-7.7834375 22.9790625 -7.7834375 22.9790625 -7.5625 21.9375 C-6.93054091 18.63726918 -6.45686059 15.32855574 -6 12 C-6.33 12 -6.66 12 -7 12 C-7 10.35 -7 8.7 -7 7 C-6.34 7 -5.68 7 -5 7 C-4.67 5.68 -4.34 4.36 -4 3 C-3.34 5.31 -2.68 7.62 -2 10 C-1.34 9.67 -0.68 9.34 0 9 C0 6.03 0 3.06 0 0 Z " fill="#0C1F17" transform="translate(200,111)"/>
<path d="M0 0 C1.65 0.66 3.3 1.32 5 2 C4.67 2.99 4.34 3.98 4 5 C4.66 5.66 5.32 6.32 6 7 C5.34 7 4.68 7 4 7 C4 7.66 4 8.32 4 9 C4.70898438 9.10570312 5.41796875 9.21140625 6.1484375 9.3203125 C9.3360357 10.08009618 11.76150625 11.28942908 14.625 12.875 C15.56601563 13.38804688 16.50703125 13.90109375 17.4765625 14.4296875 C19.67624166 15.79852809 21.2863802 17.07936573 23 19 C19.36836385 17.63287828 15.94330384 15.97704068 12.47973633 14.23266602 C0.88553605 8.4752398 -11.20186368 4.93911156 -24 3 C-21.30388175 1.15842537 -20.16447195 0.97577067 -16.87109375 1.4609375 C-15.73800781 1.76257813 -14.60492188 2.06421875 -13.4375 2.375 C-8.77465569 3.61761125 -8.77465569 3.61761125 -4 4 C-3.34 3.01 -2.68 2.02 -2 1 C-2 1.66 -2 2.32 -2 3 C-1.34 3 -0.68 3 0 3 C0 2.01 0 1.02 0 0 Z " fill="#071510" transform="translate(200,16)"/>
<path d="M0 0 C0.66 1.32 1.32 2.64 2 4 C2.99 4 3.98 4 5 4 C3.45454854 9.47932789 0.84456788 14.11429181 -2 19 C-2.66 18.34 -3.32 17.68 -4 17 C-4 16.01 -4 15.02 -4 14 C-6.42084116 14.94127798 -6.42084116 14.94127798 -7.5 18.5 C-9 22 -9 22 -11 23 C-10.37597999 18.55596564 -8.6522333 14.88725414 -6.625 10.9375 C-6.32078125 10.32583984 -6.0165625 9.71417969 -5.703125 9.08398438 C-4.05151082 5.819576 -2.30935132 2.8406438 0 0 Z " fill="#0C1E18" transform="translate(30,29)"/>
<path d="M0 0 C1 2 1 2 0.44604492 3.71044922 C0.12740479 4.40154785 -0.19123535 5.09264648 -0.51953125 5.8046875 C-0.87756836 6.60148926 -1.23560547 7.39829102 -1.60449219 8.21923828 C-2.20245605 9.53384033 -2.20245605 9.53384033 -2.8125 10.875 C-11.23606531 29.98382774 -18.23977256 49.65629115 -23 70 C-23.12375 69.360625 -23.2475 68.72125 -23.375 68.0625 C-23.58125 67.381875 -23.7875 66.70125 -24 66 C-24.66 65.67 -25.32 65.34 -26 65 C-25.67 64.34 -25.34 63.68 -25 63 C-24.34 63 -23.68 63 -23 63 C-22.90565674 62.4332959 -22.81131348 61.8665918 -22.71411133 61.28271484 C-21.35946771 53.82733957 -19.1180573 46.79213096 -16.6875 39.625 C-16.11999023 37.91183594 -16.11999023 37.91183594 -15.54101562 36.1640625 C-12.08752375 25.87955202 -8.11761164 15.91688557 -3.1875 6.25 C-2.87619141 5.63640625 -2.56488281 5.0228125 -2.24414062 4.390625 C-1.49994063 2.92512348 -0.75058778 1.46224017 0 0 Z " fill="#04100A" transform="translate(68,67)"/>
<path d="M0 0 C2.375 0.3125 2.375 0.3125 5 1 C7.31282587 4.46923881 7.42478586 5.92205575 7 10 C5.8125 11.875 5.8125 11.875 4 13 C1.4375 13.375 1.4375 13.375 -1 13 C-3.32579101 9.51131349 -3.41865457 8.10281481 -3 4 C-1.5 1.625 -1.5 1.625 0 0 Z " fill="#06110B" transform="translate(264,71)"/>
<path d="M0 0 C2.11180124 3.47826087 2.11180124 3.47826087 1.625 5.75 C1.41875 6.4925 1.2125 7.235 1 8 C0.89825657 9.33091409 0.83968468 10.66547948 0.8125 12 C0.79832031 12.66 0.78414062 13.32 0.76953125 14 C0.93526829 16.44034058 0.93526829 16.44034058 3 20 C6.3 20 9.6 20 13 20 C11 24 11 24 8.9765625 24.75 C2.71752998 25.41541209 2.71752998 25.41541209 -0.375 23.625 C-2.65356011 19.94424905 -4.31153406 16.29890942 -5 12 C-3.8125 9.9375 -3.8125 9.9375 -2 8 C-1.13818698 5.35813269 -0.58964639 2.72144486 0 0 Z " fill="#0D1F1B" transform="translate(201,179)"/>
<path d="M0 0 C0.66 0.33 1.32 0.66 2 1 C2.22233658 6.11374135 1.58475593 10.58293602 0.4375 15.5703125 C-0.0175156 18.09727411 -0.07293779 20.43806008 0 23 C-0.61875 23.12375 -1.2375 23.2475 -1.875 23.375 C-4.19120832 23.87197356 -4.19120832 23.87197356 -6 26 C-4.32699115 5.70376106 -4.32699115 5.70376106 0 0 Z " fill="#11251F" transform="translate(232,155)"/>
<path d="M0 0 C1.32 0.66 2.64 1.32 4 2 C4 3.98 4 5.96 4 8 C3.34 7.67 2.68 7.34 2 7 C2 5.68 2 4.36 2 3 C1.01 2.67 0.02 2.34 -1 2 C-2.52311487 6.24296284 -3.57051897 10.43924835 -4.4375 14.8515625 C-5 17 -5 17 -5.97045898 18.73583984 C-7.27663669 21.60837768 -7.61676403 24.24790386 -8.03515625 27.375 C-8.20466797 28.60734375 -8.37417969 29.8396875 -8.54882812 31.109375 C-8.71833984 32.39328125 -8.88785156 33.6771875 -9.0625 35 C-9.40575984 37.54190933 -9.75073749 40.08358745 -10.09765625 42.625 C-10.24726807 43.75164062 -10.39687988 44.87828125 -10.55102539 46.0390625 C-10.91222372 48.42112525 -11.35785789 50.68164434 -12 53 C-12.66 52.67 -13.32 52.34 -14 52 C-13.13779001 45.85221815 -12.25955961 39.7069534 -11.3671875 33.56347656 C-11.07606585 31.53104484 -10.80083937 29.49633723 -10.53125 27.4609375 C-9.21816787 18.29461415 -7.29098468 6.20509335 0 0 Z " fill="#05120E" transform="translate(166,63)"/>
<path d="M0 0 C0.66 0.33 1.32 0.66 2 1 C-2.12195122 9.56097561 -2.12195122 9.56097561 -5 11 C-5.84454641 12.36448824 -6.62800533 13.76725855 -7.375 15.1875 C-8.88309484 17.99460279 -10.40329854 20.5991864 -12.1875 23.25 C-13.86229507 25.79106838 -14.99063743 28.14013937 -16 31 C-16.66 30.67 -17.32 30.34 -18 30 C-17.67 28.35 -17.34 26.7 -17 25 C-16.34 25 -15.68 25 -15 25 C-14.896875 24.071875 -14.79375 23.14375 -14.6875 22.1875 C-13.93362659 18.69226873 -13.41351489 18.36104718 -11 16 C-10.10054587 14.52671015 -9.24782846 13.02412876 -8.4375 11.5 C-7.04288632 8.89324546 -5.64408005 6.46612008 -4 4 C-3.34 4 -2.68 4 -2 4 C-1.34 2.68 -0.68 1.36 0 0 Z " fill="#12251F" transform="translate(222,144)"/>
<path d="M0 0 C2.25 -0.375 2.25 -0.375 5 0 C7.1875 2.75 7.1875 2.75 9 6 C9.4125 6.61875 9.825 7.2375 10.25 7.875 C11.43952122 11.24531012 11.11857253 14.44282398 11 18 C9.68 17.67 8.36 17.34 7 17 C5.80712589 13.12315913 5 10.08378077 5 6 C4.34 5.67 3.68 5.34 3 5 C2.67 5.33 2.34 5.66 2 6 C0.68 6 -0.64 6 -2 6 C-1.34 4.02 -0.68 2.04 0 0 Z " fill="#12261F" transform="translate(190,104)"/>
<path d="M0 0 C1.32 0 2.64 0 4 0 C4.81496642 3.06184906 5.62653247 6.12458958 6.4375 9.1875 C6.66759766 10.05181641 6.89769531 10.91613281 7.13476562 11.80664062 C8.20474731 15.85396263 9.25729859 19.87672667 10 24 C11.32 23.34 12.64 22.68 14 22 C14 20.02 14 18.04 14 16 C14.66 16.33 15.32 16.66 16 17 C16 25 16 25 14.25 27.1875 C12 29 12 29 8 29 C7.81824219 28.05640625 7.63648438 27.1128125 7.44921875 26.140625 C5.778538 11.9989704 5.778538 11.9989704 0 0 Z " fill="#040E09" transform="translate(268,94)"/>
<path d="M0 0 C0 0.66 0 1.32 0 2 C-3.465 3.485 -3.465 3.485 -7 5 C-6.34 5.66 -5.68 6.32 -5 7 C-4.34 6.01 -3.68 5.02 -3 4 C-1.68 4.66 -0.36 5.32 1 6 C1 6.33 1 6.66 1 7 C8.425 5.515 8.425 5.515 16 4 C16.33 4.66 16.66 5.32 17 6 C13.56382292 6.83885377 10.12585663 7.67012919 6.6875 8.5 C5.71103516 8.73847656 4.73457031 8.97695313 3.72851562 9.22265625 C2.79072266 9.44824219 1.85292969 9.67382812 0.88671875 9.90625 C0.02264404 10.11572266 -0.84143066 10.32519531 -1.73168945 10.54101562 C-4 11 -4 11 -7 11 C-9.35893889 8.45960428 -10.25774273 6.33315529 -11 3 C-9.54293274 2.49632243 -8.08429904 1.99717444 -6.625 1.5 C-5.81289062 1.2215625 -5.00078125 0.943125 -4.1640625 0.65625 C-2 0 -2 0 0 0 Z " fill="#07140F" transform="translate(127,13)"/>
<path d="M0 0 C3.875 0.875 3.875 0.875 5 2 C5.20999945 3.95416157 5.36832634 5.91400299 5.5 7.875 C5.72347251 11.18718188 5.94792065 13.84376196 7 17 C6.34 17.99 5.68 18.98 5 20 C3.5 18.75 3.5 18.75 2 17 C2 15.68 2 14.36 2 13 C1.34 12.67 0.68 12.34 0 12 C-1.35024359 7.8265198 -0.7518819 4.26066408 0 0 Z " fill="#112620" transform="translate(255,117)"/>
<path d="M0 0 C0.33 0 0.66 0 1 0 C1.06058594 1.07378906 1.12117187 2.14757812 1.18359375 3.25390625 C1.26807651 4.69011315 1.35272054 6.12631058 1.4375 7.5625 C1.47681641 8.26697266 1.51613281 8.97144531 1.55664062 9.69726562 C1.82518279 14.1798541 2.30616197 18.56293497 3 23 C5.97 20.525 5.97 20.525 9 18 C7.73058503 21.91402949 6.48832306 23.79072873 3 26 C0.50860072 21.18329473 -0.27492076 16.93209773 -0.625 11.5625 C-0.6765625 10.89412109 -0.728125 10.22574219 -0.78125 9.53710938 C-1.00867934 6.16245931 -1.10478806 3.22367263 0 0 Z M-4 19 C-1.5 21.3125 -1.5 21.3125 1 24 C1 24.99 1 25.98 1 27 C4.62528568 27.20140476 6.86501708 26.85776765 10 25 C8.9375 27 8.9375 27 7 29 C3.3125 29.25 3.3125 29.25 0 29 C-4 22.375 -4 22.375 -4 19 Z " fill="#04120D" transform="translate(158,130)"/>
<path d="M0 0 C2.875 1.625 2.875 1.625 3.875 4.625 C0.875 5.625 0.875 5.625 -1.5625 5.0625 C-4.5646909 4.54993082 -5.63990395 4.93868482 -8.125 6.625 C-8.455 7.285 -8.785 7.945 -9.125 8.625 C-12.1875 9.25 -12.1875 9.25 -15.125 9.625 C-15.125 8.635 -15.125 7.645 -15.125 6.625 C-11.02869879 3.0324031 -5.71931357 -1.49251398 0 0 Z " fill="#11261F" transform="translate(107.125,17.375)"/>
<path d="M0 0 C1.34592097 1.65651812 2.67518731 3.32655239 4 5 C4.52851562 5.66257813 5.05703125 6.32515625 5.6015625 7.0078125 C6.14554688 7.70648438 6.68953125 8.40515625 7.25 9.125 C7.77078125 9.78757813 8.2915625 10.45015625 8.828125 11.1328125 C10 13 10 13 10 16 C7 18.1875 7 18.1875 4 20 C-0.01764453 15.59398317 -3.20307439 11.27112904 -6 6 C-2.6158075 7.12806417 -2.39012186 7.60946488 -0.625 10.5 C1.40449934 13.53557671 1.40449934 13.53557671 4.8125 14.9375 C5.534375 14.958125 6.25625 14.97875 7 15 C5.62373901 10.98590546 3.65695303 8.27690874 1 5 C1 4.34 1 3.68 1 3 C0.01 3.33 -0.98 3.66 -2 4 C-2.33 3.34 -2.66 2.68 -3 2 C-2.01 1.34 -1.02 0.68 0 0 Z " fill="#05120C" transform="translate(61,195)"/>
<path d="M0 0 C0.66 0.33 1.32 0.66 2 1 C1.3503125 1.79664062 1.3503125 1.79664062 0.6875 2.609375 C0.130625 3.31578125 -0.42625 4.0221875 -1 4.75 C-1.556875 5.44609375 -2.11375 6.1421875 -2.6875 6.859375 C-4.34847198 9.14984749 -4.34847198 9.14984749 -4 13 C-2.68 12.01 -1.36 11.02 0 10 C-2.23858492 15.25889791 -6.34454673 18.81548799 -11 22 C-13.69801867 22.64752448 -15.22182545 22.47288078 -18 22 C-18.33 21.34 -18.66 20.68 -19 20 C-17.948125 20.103125 -16.89625 20.20625 -15.8125 20.3125 C-11.84478007 20.36068704 -11.84478007 20.36068704 -9.0625 17.5 C-8.381875 16.675 -7.70125 15.85 -7 15 C-8.98 15.33 -10.96 15.66 -13 16 C-12.154375 15.030625 -11.30875 14.06125 -10.4375 13.0625 C-6.80214054 8.82847752 -3.39403181 4.42830778 0 0 Z " fill="#06120C" transform="translate(226,113)"/>
<path d="M0 0 C0.33 0 0.66 0 1 0 C0.34838054 11.07753084 -4.73146377 20.93022653 -9.9609375 30.5390625 C-11.34579634 33.06317093 -11.34579634 33.06317093 -10 36 C-12.31 36.99 -14.62 37.98 -17 39 C-15.74312579 35.62473218 -14.28553093 32.75549369 -12.3125 29.75 C-9.47102008 25.10728711 -7.31176083 20.33461255 -5.25 15.3125 C-4.95649658 14.5999707 -4.66299316 13.88744141 -4.3605957 13.15332031 C-2.62074781 8.82405998 -1.20513511 4.50744161 0 0 Z " fill="#06150E" transform="translate(107,167)"/>
<path d="M0 0 C0.33 0.66 0.66 1.32 1 2 C-0.29296875 4.4609375 -0.29296875 4.4609375 -2.1875 7.375 C-2.79980469 8.33148438 -3.41210938 9.28796875 -4.04296875 10.2734375 C-5.85482755 12.79774377 -7.7360735 14.88164749 -10 17 C-9.67 16.236875 -9.34 15.47375 -9 14.6875 C-7.82563314 12.00930865 -7.82563314 12.00930865 -8 9 C-11.60992379 9.65585189 -11.60992379 9.65585189 -15 11 C-13.68775452 7.06326356 -12.08089673 4.77280706 -9 2 C-9 3.32 -9 4.64 -9 6 C-4.64464931 4.83857315 -2.35380297 3.92300495 0 0 Z " fill="#071711" transform="translate(270,192)"/>
<path d="M0 0 C-0.61931396 0.35715088 -1.23862793 0.71430176 -1.87670898 1.08227539 C-4.73433889 2.73548713 -7.58589817 4.39891375 -10.4375 6.0625 C-11.41138672 6.62388672 -12.38527344 7.18527344 -13.38867188 7.76367188 C-19.03667964 11.06936204 -24.17808083 14.53909486 -29.14477539 18.81030273 C-30.06311157 19.39920288 -30.06311157 19.39920288 -31 20 C-31.99 19.67 -32.98 19.34 -34 19 C-31.14801691 15.9895734 -28.79135683 13.67265743 -25 12 C-19.70212388 9.08076214 -14.62721488 5.87448998 -9.55078125 2.5859375 C-3.50988776 -1.16996259 -3.50988776 -1.16996259 0 0 Z " fill="#04100C" transform="translate(92,170)"/>
<path d="M0 0 C0.66 0 1.32 0 2 0 C2.53469802 1.72492978 3.05219175 3.455198 3.5625 5.1875 C3.85253906 6.15042969 4.14257812 7.11335937 4.44140625 8.10546875 C5.02461026 11.12752588 4.81178385 13.05929955 4 16 C0.125 14.125 0.125 14.125 -1 13 C-1.09879565 11.189715 -1.12971514 9.37547273 -1.125 7.5625 C-1.12757812 6.57378906 -1.13015625 5.58507812 -1.1328125 4.56640625 C-1 2 -1 2 0 0 Z " fill="#10251E" transform="translate(45,163)"/>
<path d="M0 0 C0.66 0.33 1.32 0.66 2 1 C-4.62862946 7.88744796 -11.46751819 14.10647846 -19 20 C-19.79277344 20.62519531 -20.58554688 21.25039062 -21.40234375 21.89453125 C-26.7192623 26 -26.7192623 26 -29 26 C-29 25.34 -29 24.68 -29 24 C-28.34 24 -27.68 24 -27 24 C-27 23.34 -27 22.68 -27 22 C-26.11828125 21.60167969 -25.2365625 21.20335937 -24.328125 20.79296875 C-20.92562376 18.95993111 -18.53945322 16.96932584 -15.75 14.3125 C-11.21052632 10 -11.21052632 10 -9 10 C-9 9.34 -9 8.68 -9 8 C-8.34 8 -7.68 8 -7 8 C-6.6596875 7.13375 -6.6596875 7.13375 -6.3125 6.25 C-4.66961977 3.4336339 -2.60466773 1.91922886 0 0 Z " fill="#04100A" transform="translate(148,127)"/>
<path d="M0 0 C1.32 0.66 2.64 1.32 4 2 C3.01 2.495 3.01 2.495 2 3 C1.52925051 5.52237188 1.52925051 5.52237188 1.3671875 8.56640625 C1.28339844 9.69111328 1.19960938 10.81582031 1.11328125 11.97460938 C1.03464844 13.15861328 0.95601562 14.34261719 0.875 15.5625 C0.78863281 16.75037109 0.70226562 17.93824219 0.61328125 19.16210938 C0.40035608 22.10757419 0.19633543 25.05339035 0 28 C0.99 28 1.98 28 3 28 C3.66 27.01 4.32 26.02 5 25 C4.67 26.65 4.34 28.3 4 30 C2.125 30.625 2.125 30.625 0 31 C-2 29 -2 29 -2.265625 26.77734375 C-2.21596181 17.75105987 -1.18558046 8.9341956 0 0 Z " fill="#05100B" transform="translate(30,155)"/>
<path d="M0 0 C0.66 0 1.32 0 2 0 C1.5167409 5.07422059 -0.12401058 7.85519172 -3 12 C-3.56969877 13.25851637 -4.11194019 14.52985049 -4.625 15.8125 C-6 19 -6 19 -8 20 C-8.56561146 14.34388537 -6.71391278 10.77357872 -4 6 C-3.34 6 -2.68 6 -2 6 C-1.34 4.02 -0.68 2.04 0 0 Z " fill="#112520" transform="translate(216,108)"/>
<path d="M0 0 C2.31 0 4.62 0 7 0 C8.13770686 3.88716509 8.21103919 6.22625217 6.3125 9.75 C4.10006442 12.85936893 3.30373745 13.58113171 0 15 C0.28875 14.48050781 0.5775 13.96101563 0.875 13.42578125 C3.76732832 8.03834532 3.76732832 8.03834532 4 2 C3.01 3.32 2.02 4.64 1 6 C0.01 5.67 -0.98 5.34 -2 5 C-1.34 3.35 -0.68 1.7 0 0 Z " fill="#12241F" transform="translate(303,97)"/>
<path d="M0 0 C0.33 0.99 0.66 1.98 1 3 C-0.55766862 4.44273385 -2.12135957 5.87896708 -3.6875 7.3125 C-4.55761719 8.11300781 -5.42773438 8.91351563 -6.32421875 9.73828125 C-12.5492228 15 -12.5492228 15 -16 15 C-14.45252468 10.98938348 -11.88309946 9.01207633 -8.5625 6.375 C-7.59441406 5.59898438 -6.62632812 4.82296875 -5.62890625 4.0234375 C-3.80125361 2.61671526 -1.91898681 1.27932454 0 0 Z " fill="#11231D" transform="translate(363,113)"/>
<path d="M0 0 C0.99 0.33 1.98 0.66 3 1 C2.938125 2.03125 2.87625 3.0625 2.8125 4.125 C3.01950012 8.40300258 3.40049788 10.58815347 6 14 C8.76433652 14.82875572 11.07466386 14.90408734 14 15 C10.70095771 17.19936153 9.82580113 17.71177696 6 17 C3.63711236 15.28356275 1.62427018 13.43361443 0 11 C0 9.68 0 8.36 0 7 C-0.99 8.98 -1.98 10.96 -3 13 C-4.23593891 9.29218328 -3.5678132 8.32489747 -2.0625 4.8125 C-1.68222656 3.91144531 -1.30195313 3.01039063 -0.91015625 2.08203125 C-0.60980469 1.39496094 -0.30945313 0.70789063 0 0 Z " fill="#04120E" transform="translate(179,128)"/>
<path d="M0 0 C0.33 0 0.66 0 1 0 C1.33 1.65 1.66 3.3 2 5 C2.99 3.68 3.98 2.36 5 1 C3.75971762 7.17222879 2.10396411 13.06682122 0 19 C-0.99 19 -1.98 19 -3 19 C-2.86722656 18.21496094 -2.73445313 17.42992188 -2.59765625 16.62109375 C-1.66757357 11.08812013 -0.75808113 5.55926159 0 0 Z M0 10 C1 12 1 12 1 12 Z " fill="#04110D" transform="translate(44,102)"/>
<path d="M0 0 C1.67542976 0.28604898 3.34385343 0.61781233 5 1 C5 3.31 5 5.62 5 8 C3.0085944 8.38133299 1.00720923 8.71325582 -1 9 C-1.33 8.67 -1.66 8.34 -2 8 C-1.28 1.28 -1.28 1.28 0 0 Z " fill="#11251E" transform="translate(264,73)"/>
<path d="M0 0 C1.32 0 2.64 0 4 0 C4.33 7.59 4.66 15.18 5 23 C4.34 23.33 3.68 23.66 3 24 C2.87882813 22.79601562 2.75765625 21.59203125 2.6328125 20.3515625 C2.46400141 18.77599234 2.29470541 17.20047408 2.125 15.625 C2.00705078 14.43390625 2.00705078 14.43390625 1.88671875 13.21875 C1.53523142 8.6406878 1.53523142 8.6406878 -1 5 C-0.01 4.67 0.98 4.34 2 4 C1.34 2.68 0.68 1.36 0 0 Z " fill="#03100C" transform="translate(150,125)"/>
<path d="M0 0 C2.5625 -0.25 2.5625 -0.25 5 0 C6 1 6 1 6.0625 4.0625 C6.041875 5.031875 6.02125 6.00125 6 7 C5.01 7.495 5.01 7.495 4 8 C4 7.34 4 6.68 4 6 C2.02 6.99 2.02 6.99 0 8 C0 7.34 0 6.68 0 6 C-0.99 6.33 -1.98 6.66 -3 7 C-2.38722388 4.03824877 -1.74627478 2.61941217 0 0 Z " fill="#0A1B15" transform="translate(258,98)"/>
<path d="M0 0 C0.62645012 8.14385151 0.62645012 8.14385151 -1.875 11.5625 C-4 13 -4 13 -6 13 C-5.19444444 0 -5.19444444 0 0 0 Z " fill="#11261F" transform="translate(236,136)"/>
<path d="M0 0 C0.99 0.33 1.98 0.66 3 1 C2.34773438 1.90621094 1.69546875 2.81242188 1.0234375 3.74609375 C-3.76994354 10.42160604 -8.51625017 17.11033562 -13 24 C-13.33 23.01 -13.66 22.02 -14 21 C-13.07421875 19.31640625 -13.07421875 19.31640625 -11.6875 17.5625 C-10.2094414 15.62840128 -8.96674278 13.93348557 -7.875 11.75 C-6.87854805 9.7570961 -5.56393001 8.56393001 -4 7 C-4 6.34 -4 5.68 -4 5 C-3.01 4.34 -2.02 3.68 -1 3 C-0.67 2.01 -0.34 1.02 0 0 Z " fill="#04120D" transform="translate(224,144)"/>
<path d="M0 0 C0.71484375 1.734375 0.71484375 1.734375 1 4 C-0.43359375 6.140625 -0.43359375 6.140625 -2.4375 8.25 C-3.09621094 8.95640625 -3.75492187 9.6628125 -4.43359375 10.390625 C-4.95050781 10.92171875 -5.46742188 11.4528125 -6 12 C-7.32 11.67 -8.64 11.34 -10 11 C-9.34 10.67 -8.68 10.34 -8 10 C-7.87625 9.401875 -7.7525 8.80375 -7.625 8.1875 C-6.47960346 4.17861212 -3.35273541 2.23515694 0 0 Z " fill="#102520" transform="translate(282,127)"/>
<path d="M0 0 C2.99987171 3.28557377 4.02529928 6.79791054 5.25390625 10.9765625 C5.90892716 13.18813683 5.90892716 13.18813683 8 15 C8.125 18.125 8.125 18.125 8 21 C7.01 20.67 6.02 20.34 5 20 C3.9467651 17.56717572 3.0972173 15.26773345 2.3125 12.75 C2.08755859 12.08097656 1.86261719 11.41195312 1.63085938 10.72265625 C0.4450382 7.05345881 -0.27663837 3.85798373 0 0 Z " fill="#000504" transform="translate(277,89)"/>
<path d="M0 0 C5.53846154 0.49230769 5.53846154 0.49230769 7.875 3.0625 C8.431875 4.0215625 8.431875 4.0215625 9 5 C8.67 5.598125 8.34 6.19625 8 6.8125 C6.79212012 9.05386471 6.79212012 9.05386471 7 12 C6.34 10.68 5.68 9.36 5 8 C4.34 8 3.68 8 3 8 C0 2.25 0 2.25 0 0 Z " fill="#11251F" transform="translate(246,49)"/>
<path d="M0 0 C0.99 0.66 1.98 1.32 3 2 C2.71125 2.70125 2.4225 3.4025 2.125 4.125 C0.97866412 7.05452503 -0.02625654 10.00921653 -1 13 C-2.5625 11.25 -2.5625 11.25 -4 9 C-3.75 7 -3.75 7 -3 5 C-2.855625 4.278125 -2.71125 3.55625 -2.5625 2.8125 C-2.376875 2.214375 -2.19125 1.61625 -2 1 C-1.34 0.67 -0.68 0.34 0 0 Z " fill="#112520" transform="translate(40,203)"/>
<path d="M0 0 C0.66 0.99 1.32 1.98 2 3 C-1.44615385 9.76923077 -1.44615385 9.76923077 -4.25 10.9375 C-4.8275 10.958125 -5.405 10.97875 -6 11 C-6.33 10.01 -6.66 9.02 -7 8 C-5.56640625 5.95703125 -5.56640625 5.95703125 -3.5625 3.8125 C-2.90378906 3.09707031 -2.24507812 2.38164062 -1.56640625 1.64453125 C-1.04949219 1.10183594 -0.53257813 0.55914063 0 0 Z " fill="#132520" transform="translate(37,23)"/>
<path d="M0 0 C0.33 1.98 0.66 3.96 1 6 C0.34 6 -0.32 6 -1 6 C-1.33 6.66 -1.66 7.32 -2 8 C-2 6.02 -2 4.04 -2 2 C-3.48113281 2.86625 -3.48113281 2.86625 -4.9921875 3.75 C-6.28632735 4.500226 -7.58060537 5.25021368 -8.875 6 C-9.52597656 6.3815625 -10.17695312 6.763125 -10.84765625 7.15625 C-15.7734375 10 -15.7734375 10 -18 10 C-18 9.34 -18 8.68 -18 8 C-17.030625 7.71125 -16.06125 7.4225 -15.0625 7.125 C-11.89335797 6.35785318 -11.89335797 6.35785318 -11 4 C-9.2578125 2.9296875 -9.2578125 2.9296875 -7.125 1.875 C-6.42632812 1.52179688 -5.72765625 1.16859375 -5.0078125 0.8046875 C-3 0 -3 0 0 0 Z " fill="#04130E" transform="translate(110,159)"/>
<path d="M0 0 C2.375 0.1875 2.375 0.1875 5 1 C7.1459111 4.99377899 7.37410013 8.83811897 7.625 13.3125 C7.69976562 14.56675781 7.77453125 15.82101563 7.8515625 17.11328125 C7.90054688 18.06589844 7.94953125 19.01851562 8 20 C7.01 19.34 6.02 18.68 5 18 C4.48828125 14.8125 4.48828125 14.8125 4.3125 11 C4.21388672 9.1128125 4.21388672 9.1128125 4.11328125 7.1875 C4.05185215 5.45901232 4 3.72957891 4 2 C2.02 2.33 0.04 2.66 -2 3 C-1.34 2.01 -0.68 1.02 0 0 Z " fill="#05140F" transform="translate(230,108)"/>
<path d="M0 0 C3.82352106 1.5577308 6.29205593 3.91595258 9 7 C9 7.99 9 8.98 9 10 C6.1875 9.8125 6.1875 9.8125 3 9 C0.3297894 5.70674025 0 4.31858974 0 0 Z " fill="#112420" transform="translate(11,99)"/>
<path d="M0 0 C0.33 0.99 0.66 1.98 1 3 C-0.26141956 5.11033699 -1.55496626 7.02337955 -3 9 C-3.76739485 10.14029771 -4.53038442 11.28357176 -5.2890625 12.4296875 C-6.06713228 13.57851536 -6.8457813 14.72695111 -7.625 15.875 C-8.01945312 16.46796875 -8.41390625 17.0609375 -8.8203125 17.671875 C-9.82900491 19.15083617 -10.90911158 20.58058147 -12 22 C-12.66 22 -13.32 22 -14 22 C-12.72100318 19.34308851 -11.33270507 16.87963053 -9.6875 14.43359375 C-9.25179687 13.78326172 -8.81609375 13.13292969 -8.3671875 12.46289062 C-7.91601562 11.79451172 -7.46484375 11.12613281 -7 10.4375 C-6.54882812 9.76525391 -6.09765625 9.09300781 -5.6328125 8.40039062 C-4.79402804 7.15089957 -3.95429365 5.90204528 -3.11328125 4.65405273 C-2.07111469 3.10565834 -1.03532029 1.55298043 0 0 Z " fill="#05120C" transform="translate(94,78)"/>
<path d="M0 0 C7.59 0 15.18 0 23 0 C17.64272026 3.57151982 12.29077828 3.42531992 6 3 C2.375 2 2.375 2 0 1 C0 0.67 0 0.34 0 0 Z " fill="#031009" transform="translate(42,235)"/>
<path d="M0 0 C0.33 0.66 0.66 1.32 1 2 C0.00390625 3.9453125 0.00390625 3.9453125 -1.4375 6.125 C-1.91058594 6.84945312 -2.38367188 7.57390625 -2.87109375 8.3203125 C-3.24363281 8.87460938 -3.61617188 9.42890625 -4 10 C-3.34 10.66 -2.68 11.32 -2 12 C-0.02 10.68 1.96 9.36 4 8 C4.66 8.33 5.32 8.66 6 9 C2.21243523 12.61139896 2.21243523 12.61139896 0 14 C-2.875 13.8125 -2.875 13.8125 -5 13 C-5.68359375 11.296875 -5.68359375 11.296875 -6 9 C-4.78515625 6.640625 -4.78515625 6.640625 -3.0625 4.25 C-2.49660156 3.45078125 -1.93070312 2.6515625 -1.34765625 1.828125 C-0.90292969 1.22484375 -0.45820312 0.6215625 0 0 Z " fill="#07130D" transform="translate(70,113)"/>
<path d="M0 0 C0.41906465 3.56204952 -0.03962033 5.07499563 -1.75 8.3125 C-2.4925 9.199375 -3.235 10.08625 -4 11 C-5.32 11 -6.64 11 -8 11 C-3.91428571 0 -3.91428571 0 0 0 Z " fill="#11241E" transform="translate(227,184)"/>
<path d="M0 0 C2.06434456 3.65230191 3.11226102 7.53714686 4.1875 11.5625 C4.37763672 12.23474609 4.56777344 12.90699219 4.76367188 13.59960938 C5.66202035 16.93775296 6.11647374 18.65057878 5 22 C2.77343836 17.25645564 1.53851968 13.27749285 1 8 C0.34 8 -0.32 8 -1 8 C-0.67 5.36 -0.34 2.72 0 0 Z " fill="#051009" transform="translate(45,153)"/>
<path d="M0 0 C4.01100822 0.18655852 5.70608568 0.73948503 8.75 3.4375 C11.79752562 7.44533916 12.35328798 12.11587641 13 17 C12.34 17.33 11.68 17.66 11 18 C11 16.68 11 15.36 11 14 C10.34 13.67 9.68 13.34 9 13 C8.8453125 11.9171875 8.8453125 11.9171875 8.6875 10.8125 C7.47740035 5.86209232 4.1447863 2.76319087 0 0 Z " fill="#02100B" transform="translate(99,112)"/>
<path d="M0 0 C0.66 0.33 1.32 0.66 2 1 C2.4946164 8.54290017 0.90617391 14.058915 -2 21 C-3 18 -3 18 -2 15.875 C-0.57395625 11.77512423 -1.31962692 8.22015194 -2 4 C-1.34 4 -0.68 4 0 4 C0 2.68 0 1.36 0 0 Z " fill="#040F0B" transform="translate(195,114)"/>
<path d="M0 0 C2 0 4 0 6 0 C6.33 0.99 6.66 1.98 7 3 C6.34 3 5.68 3 5 3 C4.67 3.99 4.34 4.98 4 6 C3.34 6 2.68 6 2 6 C1.34 7.98 0.68 9.96 0 12 C-0.33 12 -0.66 12 -1 12 C-1.02687279 10.18757948 -1.04633715 8.37504767 -1.0625 6.5625 C-1.07410156 5.55316406 -1.08570313 4.54382813 -1.09765625 3.50390625 C-1 1 -1 1 0 0 Z " fill="#10251F" transform="translate(256,104)"/>
<path d="M0 0 C2.3125 2.5 2.3125 2.5 4 5 C3.01 6.485 3.01 6.485 2 8 C1.649375 7.34 1.29875 6.68 0.9375 6 C-0.96557142 3.58896039 -0.96557142 3.58896039 -4.6875 3.75 C-5.780625 3.8325 -6.87375 3.915 -8 4 C-7.67 3.01 -7.34 2.02 -7 1 C-4.37869511 -0.31065245 -2.90828303 -0.415469 0 0 Z " fill="#11241F" transform="translate(235,97)"/>
<path d="M0 0 C0.33 0.66 0.66 1.32 1 2 C-0.109375 4.1015625 -0.109375 4.1015625 -1.75 6.625 C-3.76653713 9.84307657 -5.45419622 12.84425276 -6.6875 16.4375 C-7.89911475 19.72616862 -8.53303069 20.77768881 -11 23 C-10.37597999 18.55596564 -8.6522333 14.88725414 -6.625 10.9375 C-6.32078125 10.32583984 -6.0165625 9.71417969 -5.703125 9.08398438 C-4.05151082 5.819576 -2.30935132 2.8406438 0 0 Z " fill="#05130D" transform="translate(30,29)"/>
<path d="M0 0 C0.66 1.32 1.32 2.64 2 4 C1.01 4.495 1.01 4.495 0 5 C-0.144375 5.598125 -0.28875 6.19625 -0.4375 6.8125 C-1.11188695 9.43511593 -2.3727248 10.85199673 -4 13 C-4.350625 13.886875 -4.70125 14.77375 -5.0625 15.6875 C-6 18 -6 18 -8 19 C-6.00386732 12.2813095 -3.2708579 6.19265192 0 0 Z " fill="#071710" transform="translate(181,117)"/>
<path d="M0 0 C0.66 0.99 1.32 1.98 2 3 C0.8125 6.1875 0.8125 6.1875 -0.0625 8.015625 C-1.5954142 11.26029339 -2.75998405 14.63424243 -4 18 C-4.66 18 -5.32 18 -6 18 C-5.67 14.37 -5.34 10.74 -5 7 C-4.34 7.33 -3.68 7.66 -3 8 C-2.01 5.36 -1.02 2.72 0 0 Z " fill="#05110D" transform="translate(54,84)"/>
<path d="M0 0 C0.99 0.33 1.98 0.66 3 1 C2.01 1.66 1.02 2.32 0 3 C-0.88639389 5.65918166 -1.17989025 7.48064641 -1.31640625 10.23046875 C-1.35830078 11.03291016 -1.40019531 11.83535156 -1.44335938 12.66210938 C-1.50233398 13.91217773 -1.50233398 13.91217773 -1.5625 15.1875 C-1.60568359 16.03248047 -1.64886719 16.87746094 -1.69335938 17.74804688 C-1.79931518 19.83184433 -1.9001502 21.91590103 -2 24 C-4.99459874 21.00540126 -4.36830364 17.69526936 -4.375 13.6875 C-4.39949219 12.92759766 -4.42398438 12.16769531 -4.44921875 11.38476562 C-4.47050024 7.30226676 -4.30360312 5.4565769 -1.9765625 1.95703125 C-0.99816406 0.98830078 -0.99816406 0.98830078 0 0 Z " fill="#081510" transform="translate(239,130)"/>
<path d="M0 0 C4.4258029 1.35232866 6.77386152 2.89020588 9 7 C9.03127353 10.4036028 8.59774387 13.65393375 8 17 C7.67 17 7.34 17 7 17 C6.34 13.04 5.68 9.08 5 5 C0.28941438 3.6278958 0.28941438 3.6278958 -3 5 C-3 4.34 -3 3.68 -3 3 C-2.34 3 -1.68 3 -1 3 C-0.67 2.01 -0.34 1.02 0 0 Z " fill="#04150F" transform="translate(102,21)"/>
<path d="M0 0 C1.32 0 2.64 0 4 0 C3.67 1.65 3.34 3.3 3 5 C4.65 5 6.3 5 8 5 C8 5.66 8 6.32 8 7 C5.125 7.625 5.125 7.625 2 8 C0 6 0 6 -0.125 2.875 C-0.08375 1.92625 -0.0425 0.9775 0 0 Z " fill="#091710" transform="translate(212,233)"/>
<path d="M0 0 C1.32 0 2.64 0 4 0 C2.61219205 3.89006773 0.7847773 6.96558708 -1.625 10.3125 C-2.25664063 11.19550781 -2.88828125 12.07851562 -3.5390625 12.98828125 C-4.02117187 13.65214844 -4.50328125 14.31601563 -5 15 C-5.33 14.34 -5.66 13.68 -6 13 C-4.5625 10.375 -4.5625 10.375 -3 8 C-3.66 7.67 -4.32 7.34 -5 7 C-4.01 6.67 -3.02 6.34 -2 6 C-0.684787 3.85412616 0 2.52986895 0 0 Z " fill="#08150F" transform="translate(100,197)"/>
<path d="M0 0 C1.55720335 2.85378689 2.42895964 5.4413266 3.0625 8.625 C3.53622974 10.98190335 3.92328158 12.84656316 5 15 C7.52733235 15.65555119 7.52733235 15.65555119 10 16 C9.01 16.66 8.02 17.32 7 18 C4.49303771 17.04908327 3.05598755 16.06198622 1.25 14.0625 C-0.63654688 9.44046014 -0.23305871 4.92876009 0 0 Z " fill="#04110C" transform="translate(260,119)"/>
<path d="M0 0 C0.99 0.66 1.98 1.32 3 2 C2.67 2.99 2.34 3.98 2 5 C-2.455 5.495 -2.455 5.495 -7 6 C-5 2 -5 2 -2.5625 0.625 C-1.716875 0.41875 -0.87125 0.2125 0 0 Z " fill="#0F241C" transform="translate(63,230)"/>
<path d="M0 0 C0.99 0 1.98 0 3 0 C3.99 3.3 4.98 6.6 6 10 C5.34 10.66 4.68 11.32 4 12 C3.71125 11.05125 3.4225 10.1025 3.125 9.125 C2.23174891 5.94788422 2.23174891 5.94788422 0 4 C-1.98 4.99 -1.98 4.99 -4 6 C-2.84826645 3.53199953 -1.95216435 1.95216435 0 0 Z " fill="#061610" transform="translate(39,27)"/>
<path d="M0 0 C1.8125 2.0625 1.8125 2.0625 3 4 C1.68 4.33 0.36 4.66 -1 5 C-1.33 3.68 -1.66 2.36 -2 1 C-5.63 1.66 -9.26 2.32 -13 3 C-13.33 2.34 -13.66 1.68 -14 1 C-3.98387097 -1.64041746 -3.98387097 -1.64041746 0 0 Z " fill="#04100A" transform="translate(66,230)"/>
<path d="M0 0 C0 3.60297389 -1.1785171 4.96419516 -3 8 C-3 8.99 -3 9.98 -3 11 C-4.32 10.34 -5.64 9.68 -7 9 C-7 7.68 -7 6.36 -7 5 C-5.824375 4.87625 -5.824375 4.87625 -4.625 4.75 C-1.85250896 4.27193661 -1.85250896 4.27193661 -0.6875 1.9375 C-0.460625 1.298125 -0.23375 0.65875 0 0 Z " fill="#0A1511" transform="translate(75,214)"/>
<path d="M0 0 C0.99 0 1.98 0 3 0 C2.66410006 3.13506611 1.97334828 4.025249 -0.375 6.25 C-3 8 -3 8 -6 8 C-6 7.01 -6 6.02 -6 5 C-4.36368108 3.95107762 -2.69514137 2.95093297 -1 2 C-0.67 1.34 -0.34 0.68 0 0 Z " fill="#13241E" transform="translate(341,105)"/>
<path d="M0 0 C3.73639216 1.24546405 4.18756513 2.63404953 6 6 C8.0162233 5.28436734 8.0162233 5.28436734 10 4 C10.80528889 1.94999129 10.80528889 1.94999129 11 0 C11.99 1.65 12.98 3.3 14 5 C10.04 6.98 10.04 6.98 6 9 C4.99406757 7.8803014 3.9954151 6.7540588 3 5.625 C2.443125 4.99851562 1.88625 4.37203125 1.3125 3.7265625 C0 2 0 2 0 0 Z " fill="#030B06" transform="translate(252,61)"/>
<path d="M0 0 C3.23366779 3.23366779 3.05205743 6.81887295 3.09765625 11.20703125 C3.09106747 12.74221809 3.07922794 14.27739016 3.0625 15.8125 C3.05798828 16.60076172 3.05347656 17.38902344 3.04882812 18.20117188 C3.03711312 20.13414761 3.01917998 22.06708393 3 24 C2.67 24 2.34 24 2 24 C1.93941406 23.13117187 1.87882812 22.26234375 1.81640625 21.3671875 C1.73261719 20.21476562 1.64882813 19.06234375 1.5625 17.875 C1.48128906 16.73804687 1.40007813 15.60109375 1.31640625 14.4296875 C1.02264022 11.24540875 0.53698439 8.15030842 0 5 C-0.03622333 3.33372702 -0.04899842 1.66594626 0 0 Z " fill="#05130D" transform="translate(48,27)"/>
<path d="M0 0 C1.60283571 4.49626641 0.0383847 7.42736075 -1.7421875 11.6484375 C-3.31791689 14.59436635 -5.16146936 16.26534239 -8 18 C-7.71125 17.443125 -7.4225 16.88625 -7.125 16.3125 C-5.987401 14.04484868 -5.987401 14.04484868 -5.125 11.8125 C-3.52985255 7.82463137 -1.75843469 3.91806565 0 0 Z " fill="#07130F" transform="translate(201,125)"/>
<path d="M0 0 C0.99 0.66 1.98 1.32 3 2 C2.67 3.65 2.34 5.3 2 7 C0.68 7.33 -0.64 7.66 -2 8 C-2.93423645 4.98968256 -3.04449911 4.13349732 -2 1 C-1.34 0.67 -0.68 0.34 0 0 Z " fill="#12261F" transform="translate(101,70)"/>
<path d="M0 0 C2.375 2 2.375 2 4 4 C3.67 4.66 3.34 5.32 3 6 C1 4.625 1 4.625 -1 3 C-1 2.34 -1 1.68 -1 1 C-5.66714289 2.83025211 -9.18765077 4.6497537 -13 8 C-10.65771762 2.03782667 -6.44328534 -1.09672942 0 0 Z " fill="#07130D" transform="translate(44,21)"/>
<path d="M0 0 C1.46067199 0.45082469 2.91848032 0.91093537 4.375 1.375 C5.18710937 1.63023437 5.99921875 1.88546875 6.8359375 2.1484375 C9 3 9 3 11 5 C5.73946963 5.31563182 2.55426184 4.66590937 -2 2 C-1.34 1.34 -0.68 0.68 0 0 Z " fill="#11261F" transform="translate(44,231)"/>
<path d="M0 0 C0.99 0.33 1.98 0.66 3 1 C3 1.66 3 2.32 3 3 C3.99 2.67 4.98 2.34 6 2 C6.99 2 7.98 2 9 2 C8.67 1.34 8.34 0.68 8 0 C9.32 0.33 10.64 0.66 12 1 C12 2.32 12 3.64 12 5 C9.0709637 5.83686751 7.2923726 6.07479299 4.3125 5.3125 C1.69720287 3.82814217 1.01940388 2.7801924 0 0 Z " fill="#091711" transform="translate(11,105)"/>
<path d="M0 0 C1 3 1 3 -0.4375 6.1875 C-1.2109375 7.5796875 -1.2109375 7.5796875 -2 9 C-3.65 8.67 -5.3 8.34 -7 8 C-6.38722388 5.03824877 -5.74627478 3.61941217 -4 1 C-3.34 2.32 -2.68 3.64 -2 5 C-1.34 3.35 -0.68 1.7 0 0 Z " fill="#030605" transform="translate(58,61)"/>
<path d="M0 0 C0.99 0.33 1.98 0.66 3 1 C0.61042731 4.24299151 -1.2047869 6.50902342 -5 8 C-5.33 7.34 -5.66 6.68 -6 6 C-2.25 1.125 -2.25 1.125 0 0 Z " fill="#000000" transform="translate(99,27)"/>
<path d="M0 0 C2.3129482 2.3129482 2.49580975 3.47904875 3.125 6.625 C3.29257813 7.44226563 3.46015625 8.25953125 3.6328125 9.1015625 C3.81457031 10.04128906 3.81457031 10.04128906 4 11 C3.01 11 2.02 11 1 11 C0.67 8.69 0.34 6.38 0 4 C-0.99 3.67 -1.98 3.34 -3 3 C-2.01 2.01 -1.02 1.02 0 0 Z " fill="#06130A" transform="translate(163,251)"/>
<path d="M0 0 C0.33 0.66 0.66 1.32 1 2 C0.24812026 3.73259244 -0.50721987 5.46398226 -1.296875 7.1796875 C-2.19913336 9.51553415 -2.22515052 11.52334423 -2 14 C-2.99 14 -3.98 14 -5 14 C-5.63444345 8.92445238 -3.47979852 5.26246492 -1 1 C-0.67 0.67 -0.34 0.34 0 0 Z " fill="#041410" transform="translate(215,116)"/>
<path d="M0 0 C0.33 1.32 0.66 2.64 1 4 C1.66 3.34 2.32 2.68 3 2 C3 3.98 3 5.96 3 8 C1 8 -1 8 -3 8 C-1.125 2.25 -1.125 2.25 0 0 Z " fill="#0B1C15" transform="translate(60,71)"/>
<path d="M0 0 C0.66 0.33 1.32 0.66 2 1 C-0.6924337 4.78935113 -2.5842007 6.56486523 -7 8 C-8.34050052 8.65213539 -9.67661368 9.31379969 -11 10 C-7.50640535 6.40365256 -3.88901869 3.16548033 0 0 Z " fill="#061410" transform="translate(63,178)"/>
<path d="M0 0 C1.32 0.66 2.64 1.32 4 2 C-0.39453125 6.00390625 -0.39453125 6.00390625 -2 7 C-2.99 6.67 -3.98 6.34 -5 6 C-3.35 4.02 -1.7 2.04 0 0 Z " fill="#000000" transform="translate(57,193)"/>
<path d="M0 0 C1.32 0.66 2.64 1.32 4 2 C3.01 2.495 3.01 2.495 2 3 C1.53248212 5.35599235 1.53248212 5.35599235 1.375 8.0625 C1.30023437 8.98160156 1.22546875 9.90070313 1.1484375 10.84765625 C1.09945313 11.55792969 1.05046875 12.26820313 1 13 C0.34 13 -0.32 13 -1 13 C-0.67 8.71 -0.34 4.42 0 0 Z " fill="#071812" transform="translate(30,155)"/>
<path d="M0 0 C0.66 0.33 1.32 0.66 2 1 C1.67 2.65 1.34 4.3 1 6 C-3.455 6.495 -3.455 6.495 -8 7 C-7.67 6.34 -7.34 5.68 -7 5 C-4.67843403 4.59270772 -2.3431213 4.25561323 0 4 C-0.33 3.01 -0.66 2.02 -1 1 C-0.67 0.67 -0.34 0.34 0 0 Z " fill="#06150E" transform="translate(346,125)"/>
<path d="M0 0 C0.99 1.32 1.98 2.64 3 4 C0.7864464 6.82418907 -1.43438995 9.49320049 -4 12 C-3.52309796 10.37433394 -3.04340334 8.74948689 -2.5625 7.125 C-2.29566406 6.22007813 -2.02882813 5.31515625 -1.75390625 4.3828125 C-1 2 -1 2 0 0 Z " fill="#091915" transform="translate(104,56)"/>
<path d="M0 0 C0 3.57575896 -1.08840607 5.05295935 -3 8 C-2.34 8.66 -1.68 9.32 -1 10 C-1.99 10 -2.98 10 -4 10 C-4.33 10.66 -4.66 11.32 -5 12 C-5.6875 10.3125 -5.6875 10.3125 -6 8 C-4.44568209 4.81364829 -2.62400522 2.37409996 0 0 Z " fill="#04100C" transform="translate(89,98)"/>
<path d="M0 0 C7.92 0 15.84 0 24 0 C24 0.33 24 0.66 24 1 C16.08 1 8.16 1 0 1 C0 0.67 0 0.34 0 0 Z " fill="#000000" transform="translate(149,7)"/>
<path d="M0 0 C3.125 0.375 3.125 0.375 6 1 C5.01 2.485 5.01 2.485 4 4 C3.34 4 2.68 4 2 4 C1.34 4.66 0.68 5.32 0 6 C-0.66 4.68 -1.32 3.36 -2 2 C-1.34 1.34 -0.68 0.68 0 0 Z " fill="#122821" transform="translate(258,200)"/>
<path d="M0 0 C1.98 0.495 1.98 0.495 4 1 C4 4 4 4 2 7 C0.4375 5.1875 0.4375 5.1875 -1 3 C-0.67 2.01 -0.34 1.02 0 0 Z " fill="#12271F" transform="translate(96,197)"/>
<path d="M0 0 C2.8503026 3.20945602 3.43451699 5.49988548 3.6875 9.75 C3.75324219 10.73484375 3.81898438 11.7196875 3.88671875 12.734375 C3.92410156 13.48203125 3.96148437 14.2296875 4 15 C1.46980628 10.05655429 -0.33180298 5.64065066 0 0 Z " fill="#04110C" transform="translate(277,89)"/>
<path d="M0 0 C1.98 0.495 1.98 0.495 4 1 C3.34 4.3 2.68 7.6 2 11 C1.67 11 1.34 11 1 11 C1 8.36 1 5.72 1 3 C0.34 2.67 -0.32 2.34 -1 2 C-0.67 1.34 -0.34 0.68 0 0 Z " fill="#06120F" transform="translate(228,141)"/>
<path d="M0 0 C0 3 0 3 -1.0625 5.125 C-3.80257064 7.77668126 -6.289257 7.71994392 -10 8 C-7.17340186 5.01636863 -4.79668314 2.62714992 -1 1 C-0.67 0.67 -0.34 0.34 0 0 Z " fill="#000000" transform="translate(281,135)"/>
<path d="M0 0 C0.33 0 0.66 0 1 0 C0.88512252 1.58409994 0.75765492 3.16728963 0.625 4.75 C0.55539063 5.63171875 0.48578125 6.5134375 0.4140625 7.421875 C0.00149945 9.99066382 -0.71160957 11.75841015 -2 14 C-2 12.68 -2 11.36 -2 10 C-2.66 9.67 -3.32 9.34 -4 9 C-3.67 8.34 -3.34 7.68 -3 7 C-2.34 7 -1.68 7 -1 7 C-0.67 4.69 -0.34 2.38 0 0 Z " fill="#091912" transform="translate(46,123)"/>
<path d="M0 0 C0.99 0.33 1.98 0.66 3 1 C2.34 4.3 1.68 7.6 1 11 C0.67 11 0.34 11 0 11 C0 7.37 0 3.74 0 0 Z " fill="#081610" transform="translate(154,246)"/>
<path d="M0 0 C0.99 0.66 1.98 1.32 3 2 C1.8125 3.5625 1.8125 3.5625 0 5 C-2.6875 4.6875 -2.6875 4.6875 -5 4 C-4.67 3.01 -4.34 2.02 -4 1 C-3.01 1 -2.02 1 -1 1 C-0.67 0.67 -0.34 0.34 0 0 Z " fill="#132520" transform="translate(164,153)"/>
<path d="M0 0 C0.66 0.33 1.32 0.66 2 1 C0.83857315 5.35535069 -0.07699505 7.64619703 -4 10 C-4.66 9.67 -5.32 9.34 -6 9 C-5.38125 8.814375 -4.7625 8.62875 -4.125 8.4375 C-0.94397134 6.28562767 -0.80548053 3.62466237 0 0 Z " fill="#03110B" transform="translate(341,100)"/>
<path d="M0 0 C3.1875 0.3125 3.1875 0.3125 6 1 C6 1.99 6 2.98 6 4 C3.03 3.67 0.06 3.34 -3 3 C-2.01 2.01 -1.02 1.02 0 0 Z " fill="#030703" transform="translate(129,248)"/>
<path d="M0 0 C1.1434356 2.20519723 2.13225922 4.35544665 3 6.6875 C3.77234179 9.15427599 3.77234179 9.15427599 6 10 C4.35 10 2.7 10 1 10 C0.63720544 8.71073008 0.28503302 7.41846728 -0.0625 6.125 C-0.35833984 5.04605469 -0.35833984 5.04605469 -0.66015625 3.9453125 C-1 2 -1 2 0 0 Z " fill="#03100B" transform="translate(39,220)"/>
<path d="M0 0 C0.66 0.33 1.32 0.66 2 1 C2.4140625 3.06640625 2.4140625 3.06640625 2.625 5.5625 C2.69976562 6.38878906 2.77453125 7.21507813 2.8515625 8.06640625 C2.92503906 9.02353516 2.92503906 9.02353516 3 10 C2.01 10.495 2.01 10.495 1 11 C0.63743142 9.5437328 0.28520207 8.08488815 -0.0625 6.625 C-0.35833984 5.40683594 -0.35833984 5.40683594 -0.66015625 4.1640625 C-1 2 -1 2 0 0 Z " fill="#04120E" transform="translate(253,119)"/>
<path d="M0 0 C0.99 0 1.98 0 3 0 C3.33 0.66 3.66 1.32 4 2 C3.0625 4.625 3.0625 4.625 2 7 C1.01 7 0.02 7 -1 7 C-0.67 4.69 -0.34 2.38 0 0 Z " fill="#061915" transform="translate(42,114)"/>
<path d="M0 0 C0.66 0.33 1.32 0.66 2 1 C1 4 1 4 -1.4375 5.75 C-2.7059375 6.36875 -2.7059375 6.36875 -4 7 C-4.66 6.67 -5.32 6.34 -6 6 C-4.02 4.02 -2.04 2.04 0 0 Z " fill="#030C05" transform="translate(102,29)"/>
<path d="M0 0 C0.0825 0.598125 0.165 1.19625 0.25 1.8125 C1.20455872 4.5966296 2.57132271 5.43311142 5 7 C1 7 1 7 -2 5 C-1.34 3.35 -0.68 1.7 0 0 Z " fill="#06140F" transform="translate(89,206)"/>
<path d="M0 0 C0.66 0 1.32 0 2 0 C1.34 1.98 0.68 3.96 0 6 C-1.32 6 -2.64 6 -4 6 C-2.84826645 3.53199953 -1.95216435 1.95216435 0 0 Z " fill="#122621" transform="translate(73,52)"/>
<path d="M0 0 C0.66 0.33 1.32 0.66 2 1 C2.625 3.5625 2.625 3.5625 3 6 C2.34 6 1.68 6 1 6 C0.67 5.34 0.34 4.68 0 4 C-2.01669827 2.86649466 -2.01669827 2.86649466 -4 2 C-2.125 0.9375 -2.125 0.9375 0 0 Z " fill="#000300" transform="translate(161,255)"/>
<path d="M0 0 C0.33 0.99 0.66 1.98 1 3 C-0.32 3.99 -1.64 4.98 -3 6 C-3.66 4.35 -4.32 2.7 -5 1 C-3.35 0.67 -1.7 0.34 0 0 Z " fill="#08170F" transform="translate(243,220)"/>
<path d="M0 0 C1.98 0.495 1.98 0.495 4 1 C3.67 2.32 3.34 3.64 3 5 C1.68 4.67 0.36 4.34 -1 4 C-0.67 2.68 -0.34 1.36 0 0 Z " fill="#12241E" transform="translate(145,123)"/>
<path d="M0 0 C1.65 0.33 3.3 0.66 5 1 C4.01 1.33 3.02 1.66 2 2 C2 3.65 2 5.3 2 7 C0.4375 5.75 0.4375 5.75 -1 4 C-0.6875 1.8125 -0.6875 1.8125 0 0 Z " fill="#071711" transform="translate(294,115)"/>
<path d="M0 0 C0.66 0.99 1.32 1.98 2 3 C0.35 4.98 -1.3 6.96 -3 9 C-3.33 8.34 -3.66 7.68 -4 7 C-3.22265625 5.2734375 -3.22265625 5.2734375 -2.0625 3.375 C-1.381875 2.26125 -0.70125 1.1475 0 0 Z " fill="#07130F" transform="translate(70,51)"/>
<path d="M0 0 C1.32 1.65 2.64 3.3 4 5 C2.68 5.33 1.36 5.66 0 6 C-0.99 4.68 -1.98 3.36 -3 2 C-2.01 1.34 -1.02 0.68 0 0 Z " fill="#0E1E19" transform="translate(58,198)"/>
<path d="M0 0 C0.99 0.66 1.98 1.32 3 2 C2.01 2.66 1.02 3.32 0 4 C-0.66 3.67 -1.32 3.34 -2 3 C-2 2.34 -2 1.68 -2 1 C-1.34 0.67 -0.68 0.34 0 0 Z " fill="#000000" transform="translate(71,211)"/>
<path d="M0 0 C0.33 0 0.66 0 1 0 C1 3.63 1 7.26 1 11 C0.67 11 0.34 11 0 11 C0 7.37 0 3.74 0 0 Z " fill="#000000" transform="translate(238,139)"/>
<path d="M0 0 C2.64 0.33 5.28 0.66 8 1 C8 1.33 8 1.66 8 2 C5.36 1.67 2.72 1.34 0 1 C0 0.67 0 0.34 0 0 Z " fill="#000000" transform="translate(129,246)"/>
<path d="M0 0 C0.66 0.33 1.32 0.66 2 1 C1.01 1.99 0.02 2.98 -1 4 C-1.33 3.01 -1.66 2.02 -2 1 C-1.34 0.67 -0.68 0.34 0 0 Z " fill="#000000" transform="translate(52,182)"/>
<path d="M0 0 C2.125 0.9375 2.125 0.9375 4 2 C2.02 2.33 0.04 2.66 -2 3 C-2 2.34 -2 1.68 -2 1 C-1.34 0.67 -0.68 0.34 0 0 Z " fill="#000000" transform="translate(91,102)"/>
<path d="M0 0 C0.33 0 0.66 0 1 0 C1 2.64 1 5.28 1 8 C0.67 8 0.34 8 0 8 C0 5.36 0 2.72 0 0 Z " fill="#000000" transform="translate(50,70)"/>
<path d="M0 0 C2.475 0.495 2.475 0.495 5 1 C4.01 1.33 3.02 1.66 2 2 C1.34 1.34 0.68 0.68 0 0 Z " fill="#000000" transform="translate(127,252)"/>
<path d="M0 0 C0.33 0 0.66 0 1 0 C1 1.98 1 3.96 1 6 C0.67 6 0.34 6 0 6 C0 4.02 0 2.04 0 0 Z " fill="#000000" transform="translate(41,161)"/>
<path d="M0 0 C0.99 0 1.98 0 3 0 C2.67 0.99 2.34 1.98 2 3 C1.34 2.67 0.68 2.34 0 2 C0 1.34 0 0.68 0 0 Z " fill="#000000" transform="translate(190,126)"/>
<path d="M0 0 C0.33 0 0.66 0 1 0 C1 1.98 1 3.96 1 6 C0.67 6 0.34 6 0 6 C0 4.02 0 2.04 0 0 Z " fill="#000000" transform="translate(238,114)"/>
<path d="M0 0 C0.33 0 0.66 0 1 0 C1 1.98 1 3.96 1 6 C0.67 6 0.34 6 0 6 C0 4.02 0 2.04 0 0 Z " fill="#000000" transform="translate(263,111)"/>
<path d="M0 0 C1.65 0 3.3 0 5 0 C5 0.33 5 0.66 5 1 C3.35 1 1.7 1 0 1 C0 0.67 0 0.34 0 0 Z " fill="#000000" transform="translate(191,259)"/>
<path d="M0 0 C0.33 0 0.66 0 1 0 C1 1.65 1 3.3 1 5 C0.67 5 0.34 5 0 5 C0 3.35 0 1.7 0 0 Z " fill="#000000" transform="translate(264,106)"/>
<path d="M0 0 C4 1 4 1 4 1 Z " fill="#000000" transform="translate(259,96)"/>
<path d="M0 0 C3 1 3 1 3 1 Z " fill="#000000" transform="translate(126,259)"/>
<path d="M0 0 C3 1 3 1 3 1 Z " fill="#000000" transform="translate(220,248)"/>
<path d="" fill="#000000" transform="translate(0,0)"/>
<path d="" fill="#000000" transform="translate(0,0)"/>
<path d="" fill="#000000" transform="translate(0,0)"/>
<path d="" fill="#000000" transform="translate(0,0)"/>
<path d="" fill="#000000" transform="translate(0,0)"/>
<path d="" fill="#000000" transform="translate(0,0)"/>
<path d="M0 0 C2 1 2 1 2 1 Z " fill="#000000" transform="translate(223,247)"/>
<path d="M0 0 C2 1 2 1 2 1 Z " fill="#000000" transform="translate(95,246)"/>
<path d="M0 0 C2 1 2 1 2 1 Z " fill="#000000" transform="translate(66,236)"/>
<path d="" fill="#000000" transform="translate(0,0)"/>
<path d="" fill="#000000" transform="translate(0,0)"/>
<path d="" fill="#000000" transform="translate(0,0)"/>
<path d="" fill="#000000" transform="translate(0,0)"/>
<path d="" fill="#000000" transform="translate(0,0)"/>
<path d="" fill="#000000" transform="translate(0,0)"/>
<path d="M0 0 C2 1 2 1 2 1 Z " fill="#000000" transform="translate(233,106)"/>
<path d="" fill="#000000" transform="translate(0,0)"/>
<path d="M0 0 C2 1 2 1 2 1 Z " fill="#000000" transform="translate(192,11)"/>
<path d="" fill="#000000" transform="translate(0,0)"/>
<path d="" fill="#000000" transform="translate(0,0)"/>
<path d="" fill="#000000" transform="translate(0,0)"/>
<path d="" fill="#000000" transform="translate(0,0)"/>
<path d="" fill="#000000" transform="translate(0,0)"/>
<path d="" fill="#000000" transform="translate(0,0)"/>
<path d="" fill="#000000" transform="translate(0,0)"/>
<path d="" fill="#000000" transform="translate(0,0)"/>
<path d="" fill="#000000" transform="translate(0,0)"/>
<path d="" fill="#000000" transform="translate(0,0)"/>
<path d="" fill="#000000" transform="translate(0,0)"/>
<path d="" fill="#000000" transform="translate(0,0)"/>
<path d="" fill="#000000" transform="translate(0,0)"/>
<path d="" fill="#000000" transform="translate(0,0)"/>
<path d="" fill="#000000" transform="translate(0,0)"/>
<path d="" fill="#000000" transform="translate(0,0)"/>
<path d="" fill="#000000" transform="translate(0,0)"/>
<path d="" fill="#000000" transform="translate(0,0)"/>
<path d="" fill="#000000" transform="translate(0,0)"/>
<path d="" fill="#000000" transform="translate(0,0)"/>
<path d="" fill="#000000" transform="translate(0,0)"/>
<path d="" fill="#000000" transform="translate(0,0)"/>
<path d="" fill="#000000" transform="translate(0,0)"/>
<path d="" fill="#000000" transform="translate(0,0)"/>
<path d="" fill="#000000" transform="translate(0,0)"/>
<path d="" fill="#000000" transform="translate(0,0)"/>
<path d="" fill="#000000" transform="translate(0,0)"/>
<path d="" fill="#000000" transform="translate(0,0)"/>
<path d="" fill="#000000" transform="translate(0,0)"/>
<path d="" fill="#000000" transform="translate(0,0)"/>
<path d="" fill="#000000" transform="translate(0,0)"/>
<path d="" fill="#000000" transform="translate(0,0)"/>
<path d="" fill="#000000" transform="translate(0,0)"/>
<path d="" fill="#000000" transform="translate(0,0)"/>
<path d="" fill="#000000" transform="translate(0,0)"/>
<path d="" fill="#000000" transform="translate(0,0)"/>
<path d="" fill="#000000" transform="translate(0,0)"/>
<path d="" fill="#000000" transform="translate(0,0)"/>
<path d="" fill="#000000" transform="translate(0,0)"/>
<path d="" fill="#000000" transform="translate(0,0)"/>
<path d="" fill="#000000" transform="translate(0,0)"/>
<path d="" fill="#000000" transform="translate(0,0)"/>
<path d="" fill="#000000" transform="translate(0,0)"/>
<path d="" fill="#000000" transform="translate(0,0)"/>
<path d="" fill="#000000" transform="translate(0,0)"/>
<path d="" fill="#000000" transform="translate(0,0)"/>
<path d="" fill="#14140F" transform="translate(0,0)"/>
<path d="" fill="#000000" transform="translate(0,0)"/>
</svg>
